<svg xmlns="http://www.w3.org/2000/svg" viewBox="0 0 303.074 342">
  <path d="M87.598 240.937h19.54c2.294 0 3.48 1.02 3.48 2.973 0 1.954-1.187 2.975-3.48 2.975h-22.6c-1.698 0-2.887-1.273-2.887-2.975v-52.927c0-2.293.937-3.398 2.89-3.398 2.04 0 3.06 1.19 3.06 3.482v49.87zm74.46-13.167H135.21l-7.56 17.33c-.68 1.53-1.87 2.208-2.975 2.208-1.444 0-2.72-1.104-2.72-2.803 0-.51.086-1.02.34-1.614l23.448-53.096c.766-1.785 1.784-2.21 2.974-2.21 1.19 0 2.124.425 2.89 2.21l23.362 53.098c.252.595.34 1.105.34 1.615 0 1.7-1.276 2.803-2.72 2.803-1.106 0-2.295-.68-2.975-2.21l-7.56-17.33zm-24.384-5.61h21.918l-10.96-25.146-10.958 25.146zm61.456-34.152c8.408 0 15.376 6.712 15.376 15.293 0 4.25-1.7 7.9-5.013 10.706 6.372 1.954 11.385 8.58 11.385 15.802 0 9.345-7.9 17.077-17.162 17.077H188c-1.7 0-2.89-1.273-2.89-2.975v-52.93c0-1.698 1.19-2.975 2.89-2.975h11.13zm-8.072 24.807h8.07c5.352 0 9.346-4.247 9.346-9.515 0-5.182-3.994-9.346-9.345-9.346h-8.073v18.86zm0 28.122h12.744c6.2 0 11.128-5.013 11.128-11.044 0-6.202-4.927-11.215-11.128-11.215h-12.744v22.26z" fill="#FFF"/>
  <path d="M105.457 305.858c9.212-10.48 12.247-14.89 12.247-22.142 0-6.86-6.172-12.346-13.127-12.346-6.663 0-11.66 4.703-12.935 10.68-.392 1.763-2.154 2.646-3.332 2.646-1.76 0-3.33-1.078-3.33-3.33 0-7.545 8.23-16.952 19.99-16.952 11.167 0 19.594 9.407 19.594 18.814 0 10.87-4.996 17.732-12.74 26.16l-16.26 17.732h27.14c2.153 0 3.23 1.076 3.23 3.428 0 2.256-1.077 3.43-3.23 3.43H90.86c-3.234 0-5-2.058-5-4.21 0-.983.393-2.062 1.18-2.945l18.417-20.965zm45.738-38.014c1.274-1.765 2.45-2.252 3.723-2.252 1.962 0 3.625 1.47 3.625 4.016v60.94c0 2.356-1.176 3.92-3.526 3.92-2.254 0-3.33-1.564-3.33-3.92V278.82l-4.508 6.17c-.885 1.177-1.963 1.667-2.94 1.667-1.666 0-3.234-1.374-3.234-3.136 0-.686.196-1.47.784-2.252l9.405-13.423zm45.522 38.014c9.21-10.48 12.248-14.89 12.248-22.142 0-6.86-6.172-12.346-13.128-12.346-6.66 0-11.66 4.703-12.933 10.68-.393 1.763-2.156 2.646-3.332 2.646-1.762 0-3.33-1.078-3.33-3.33 0-7.545 8.23-16.952 19.988-16.952 11.17 0 19.593 9.407 19.593 18.814 0 10.87-4.996 17.732-12.735 26.16l-16.264 17.733h27.138c2.157 0 3.234 1.077 3.234 3.43 0 2.255-1.077 3.43-3.234 3.43H182.12c-3.23 0-4.997-2.06-4.997-4.21 0-.984.393-2.063 1.177-2.946l18.417-20.965z" fill="#FFF" stroke="#FFF" stroke-width="6.724"/>
  <circle cx="100.976" cy="115.116" r="20.112" fill="#FFF"/>
  <circle cx="100.976" cy="66.001" r="20.112" fill="#FFF"/>
  <circle cx="150.976" cy="115.116" r="20.112" fill="#FFF"/>
  <circle cx="150.976" cy="66.001" r="20.112" fill="#FFF"/>
  <circle cx="200.977" cy="115.116" r="20.113" fill="#FFF"/>
  <circle cx="200.977" cy="66.001" r="20.113" fill="#FFF"/>
  <path d="M151.35 5.792C67.915 5.792 0 90.115 0 90.115c2.418 3.406 70.477 84.4 151.35 84.4 83.814 0 151.724-84.37 151.724-84.37S234.664 5.793 151.35 5.793zM151.332 155C85.498 155 26.5 90.333 26.5 90.333s58.997-64.667 124.83-64.667S276 90.333 276 90.333 217.165 155 151.33 155zm-644.834 85.937h19.54c2.294 0 3.48 1.02 3.48 2.973 0 1.954-1.187 2.975-3.48 2.975h-22.6c-1.698 0-2.887-1.273-2.887-2.975v-52.927c0-2.293.937-3.398 2.89-3.398 2.04 0 3.06 1.19 3.06 3.482v49.87zm74.46-13.167h-26.848l-7.56 17.33c-.68 1.53-1.87 2.208-2.974 2.208-1.444 0-2.72-1.104-2.72-2.803 0-.51.086-1.02.34-1.614l23.448-53.096c.766-1.785 1.784-2.21 2.974-2.21 1.19 0 2.124.425 2.89 2.21l23.362 53.098c.254.595.34 1.105.34 1.615 0 1.7-1.274 2.803-2.72 2.803-1.104 0-2.293-.68-2.973-2.21l-7.56-17.33zm-24.384-5.61h21.918l-10.96-25.146-10.958 25.146zm61.456-34.152c8.408 0 15.376 6.712 15.376 15.293 0 4.25-1.7 7.9-5.013 10.706 6.372 1.954 11.385 8.58 11.385 15.802 0 9.345-7.9 17.077-17.162 17.077H-393.1c-1.7 0-2.89-1.273-2.89-2.975v-52.93c0-1.698 1.19-2.975 2.89-2.975h11.13zm-8.072 24.807h8.07c5.35 0 9.346-4.247 9.346-9.515 0-5.182-3.994-9.346-9.345-9.346h-8.073v18.86zm0 28.122h12.744c6.2 0 11.128-5.013 11.128-11.044 0-6.202-4.927-11.215-11.128-11.215h-12.744v22.26z" fill="#FFF"/>
  <path d="M-475.643 305.858c9.212-10.48 12.247-14.89 12.247-22.142 0-6.86-6.172-12.346-13.127-12.346-6.663 0-11.66 4.703-12.935 10.68-.392 1.763-2.154 2.646-3.332 2.646-1.76 0-3.33-1.078-3.33-3.33 0-7.545 8.23-16.952 19.99-16.952 11.167 0 19.594 9.407 19.594 18.814 0 10.87-4.996 17.732-12.74 26.16l-16.262 17.733h27.14c2.154 0 3.23 1.077 3.23 3.43 0 2.255-1.076 3.43-3.23 3.43h-31.842c-3.234 0-5-2.06-5-4.21 0-.984.393-2.063 1.18-2.946l18.417-20.965zm45.74-38.014c1.273-1.765 2.45-2.252 3.722-2.252 1.96 0 3.623 1.47 3.623 4.016v60.94c0 2.356-1.176 3.92-3.526 3.92-2.254 0-3.33-1.564-3.33-3.92V278.82l-4.508 6.17c-.884 1.177-1.96 1.667-2.94 1.667-1.666 0-3.234-1.374-3.234-3.136 0-.686.196-1.47.784-2.252l9.406-13.423zm45.52 38.014c9.21-10.48 12.248-14.89 12.248-22.142 0-6.86-6.172-12.346-13.128-12.346-6.66 0-11.66 4.703-12.933 10.68-.392 1.763-2.156 2.646-3.332 2.646-1.762 0-3.33-1.078-3.33-3.33 0-7.545 8.23-16.952 19.988-16.952 11.17 0 19.593 9.407 19.593 18.814 0 10.87-4.996 17.732-12.735 26.16l-16.264 17.733h27.138c2.157 0 3.234 1.077 3.234 3.43 0 2.255-1.077 3.43-3.234 3.43h-31.842c-3.23 0-4.997-2.06-4.997-4.21 0-.984.393-2.063 1.177-2.946l18.417-20.965z" fill="#FFF" stroke="#FFF" stroke-width="6.724"/>
  <path d="M-429.74 164.515c-64.903 0-121.1-55.4-138.435-74.368 17.336-18.97 73.532-74.367 138.436-74.367 64.903 0 121.098 55.397 138.434 74.367-17.337 18.97-73.53 74.368-138.432 74.368z" fill="#FDFEFF"/>
  <path d="M-429.74 5.778c83.79 0 151.715 84.368 151.715 84.368s-67.926 84.368-151.715 84.368c-83.79 0-151.716-84.368-151.716-84.368S-513.53 5.778-429.74 5.778m0 20c-37.667 0-72.504 20.688-95.095 38.044-12.435 9.553-22.534 19.07-29.602 26.296 21.37 21.805 70.103 64.396 124.697 64.396 37.666 0 72.503-20.688 95.095-38.044 12.434-9.553 22.533-19.07 29.602-26.296-21.37-21.804-70.104-64.396-124.697-64.396z" fill="#FFF"/>
  <circle cx="-480.123" cy="115.116" r="20.112" fill="#FFF"/>
  <circle cx="-480.123" cy="66.001" r="20.112" fill="#FFF"/>
  <circle cx="-430.123" cy="115.116" r="20.112" fill="#FFF"/>
  <circle cx="-430.123" cy="66.001" r="20.112" fill="#FFF"/>
  <circle cx="-380.123" cy="115.116" r="20.113" fill="#FFF"/>
  <circle cx="-380.123" cy="66.001" r="20.113" fill="#FFF"/>
</svg>
