<svg xmlns="http://www.w3.org/2000/svg" viewBox="0 0 300.00006 244.18703">
  <path d="M94.72 243.187c112.46 0 173.955-93.168 173.955-173.956 0-2.645-.054-5.28-.173-7.9C280.44 52.7 290.817 41.93 299 29.67c-10.955 4.87-22.744 8.146-35.11 9.624 12.623-7.57 22.314-19.543 26.885-33.817-11.813 7.003-24.895 12.093-38.824 14.84C240.796 8.433 224.91 1 207.324 1 173.56 1 146.18 28.38 146.18 62.132c0 4.798.536 9.465 1.585 13.94C96.95 73.516 51.89 49.187 21.74 12.192c-5.25 9.036-8.28 19.532-8.28 30.73 0 21.213 10.794 39.94 27.208 50.894-10.03-.31-19.453-3.063-27.69-7.647-.01.255-.01.505-.01.78 0 29.61 21.076 54.33 49.052 59.933-5.138 1.4-10.544 2.152-16.123 2.152-3.934 0-7.766-.387-11.49-1.103 7.783 24.294 30.354 41.97 57.114 42.466-20.923 16.4-47.285 26.17-75.935 26.17-4.93 0-9.798-.28-14.584-.847 27.06 17.345 59.19 27.465 93.723 27.465" fill="#FFF"/>
</svg>
