<?xml version="1.0" standalone="no"?> <!DOCTYPE svg PUBLIC "-//W3C//DTD SVG 1.0//EN" "http://www.w3.org/TR/2001/REC-SVG-20010904/DTD/svg10.dtd" > <svg xmlns="http://www.w3.org/2000/svg" width="100%" height="100%">
<defs >
<font id="QuicksandBook-Regular" horiz-adv-x="1032" ><font-face
    font-family="Quicksand Book"
    units-per-em="2048"
    panose-1="2 7 3 3 0 0 0 6 0 0"
    ascent="1890"
    descent="-420"
    alphabetic="0" />
<missing-glyph horiz-adv-x="1024" d="M102 0V1092H922V0H102ZM205 102H819V989H205V102Z" />
<glyph unicode=" " glyph-name="uni00A0" horiz-adv-x="614" />
<glyph unicode="!" glyph-name="exclam" horiz-adv-x="516" d="M190 356V1384Q190 1404 204 1419T239 1434T275 1420T291 1384V356Q291 336 277 321T240 305Q220 305 205 320T190 356ZM190 49V98Q190 118 204 132T239 147T275 133T291 98V49Q291 29 276 15T240
0T205 14T190 49Z" />
<glyph unicode="&quot;" glyph-name="quotedbl" horiz-adv-x="839" d="M512 944L573 1384Q581 1437 631 1438H670Q703 1438 702 1403Q702 1401 692 1354L575 942Q563 905 541 905Q506 905 512 944ZM143 944L205 1384Q213 1437 262 1438H301Q334 1438 334 1403Q334
1401 324 1354L207 942Q195 905 172 905Q137 905 143 944Z" />
<glyph unicode="#" glyph-name="numbersign" horiz-adv-x="1433" d="M291 51L348 383H141Q121 383 107 396T92 430T106 465T141 479H365L449 963H223Q203 963 189 976T174 1009T188 1044T223 1059H465L522 1397Q528 1442 573 1442Q598 1442 610 1424T618 1382L563
1059H987L1044 1397Q1050 1442 1096 1442Q1121 1442 1133 1424T1141 1382L1085 1059H1290Q1310 1059 1324 1046T1339 1012T1325 977T1290 963H1069L985 479H1208Q1228 479 1242 466T1257 433T1243 398T1208 383H969L909 37Q903 -8 858 -8Q833 -8 821 10T813 51L870
383H446L387 37Q381 -8 336 -8Q311 -8 299 10T291 51ZM463 479H887L971 963H547L463 479Z" />
<glyph unicode="$" glyph-name="dollar" horiz-adv-x="1294" d="M608 1511Q608 1531 622 1546T657 1561T692 1547T707 1511V1430Q900 1414 1071 1286Q1100 1263 1100 1239Q1100 1219 1085 1204T1047 1188Q1027 1188 1010 1202Q867 1317 702 1335V762Q935 713 1040
622T1145 379Q1145 217 1022 112T707 0V-160Q707 -180 693 -194T658 -209T623 -195T608 -160V2Q352 22 147 201Q124 219 125 244Q125 264 140 279T176 295Q199 295 213 281Q389 117 612 94V678Q383 729 281 819T178 1063Q178 1219 300 1324T608 1434V1511ZM1040
371Q1040 482 968 548T702 657V92Q854 94 947 173T1040 371ZM283 1071Q283 960 352 894T612 782V1341Q465 1339 374 1262T283 1071Z" />
<glyph unicode="&amp;" glyph-name="ampersand" horiz-adv-x="1425" d="M100 469Q100 586 154 688T303 856Q213 952 213 1087Q213 1230 314 1332T559 1434T803 1333T905 1087Q905 1067 890 1053T854 1038T820 1052T805 1087Q805 1189 734 1261T560 1333T385 1262T313
1087Q313 962 418 889Q451 862 434 829Q432 817 416 805Q408 799 399 797Q309 748 255 662T201 469Q201 317 309 209T569 100T829 208T938 469Q938 508 928 553Q905 557 866 557Q700 557 637 494Q596 453 596 389Q596 371 602 346Q612 297 569 283Q563 281 555
281Q516 281 506 315Q496 325 496 389Q496 495 567 563Q661 657 866 657Q915 657 938 653H950H956H971Q1006 659 1028 676Q1057 705 1057 752Q1057 785 1053 805Q1047 825 1058 842T1090 864Q1135 874 1151 827Q1157 784 1157 752Q1163 652 1087 598Q1056 578 1028
565Q1038 514 1038 469Q1038 274 900 137T570 0T239 137T100 469Z" />
<glyph unicode="&apos;" glyph-name="quotesingle" horiz-adv-x="471" d="M143 944L205 1384Q213 1437 262 1438H301Q334 1438 334 1403Q334 1401 324 1354L207 942Q195 905 172 905Q137 905 143 944Z" />
<glyph unicode="(" glyph-name="parenleft" horiz-adv-x="880" d="M244 57Q146 268 145 621Q145 971 244 1184Q361 1440 600 1440Q623 1440 639 1423T655 1383T639 1343T600 1325Q436 1323 346 1135Q260 947 260 621T346 106Q438 -84 600 -84Q623 -84 639 -101T655
-141Q655 -166 639 -182T600 -199H596Q475 -199 385 -130T244 57Z" />
<glyph unicode=")" glyph-name="parenright" horiz-adv-x="880" d="M535 57Q484 -60 394 -129T182 -199H178Q155 -199 139 -183T123 -141Q123 -118 139 -101T178 -84Q340 -84 432 106Q518 294 518 620T432 1135Q342 1323 178 1325Q155 1325 139 1342T123 1382T139
1422T178 1440Q418 1440 535 1184Q633 971 633 621Q633 268 535 57Z" />
<glyph unicode="*" glyph-name="asterisk" horiz-adv-x="880" d="M399 868L416 1092L229 965Q211 953 197 952Q181 952 169 965T156 995Q156 1022 184 1034L395 1135L184 1235Q155 1249 156 1274Q156 1313 197 1317Q211 1317 229 1305L416 1178L399 1401Q397 1419
409 1432T440 1446T471 1433T481 1401L465 1178L651 1305Q669 1317 684 1317Q700 1317 712 1304T725 1274Q725 1247 696 1235L485 1135L696 1034Q725 1022 725 995Q725 979 713 966T684 952Q670 952 651 965L465 1092L481 868Q483 850 471 837T441 823T410 836T399
868Z" />
<glyph unicode="+" glyph-name="plus" horiz-adv-x="1269" d="M575 274V649H201Q172 649 152 668T131 716T151 765T201 786H575V1161Q575 1190 594 1209T643 1229T692 1210T713 1161V786H1087Q1116 786 1135 766T1155 717T1136 669T1087 649H713V274Q713 245 693
225T643 205T595 225T575 274Z" />
<glyph unicode="," glyph-name="comma" horiz-adv-x="471" d="M111 -184Q111 -168 127 -158Q231 -101 223 0Q168 14 168 72V115Q168 144 187 163T235 182T283 163T303 115V63Q303 -95 248 -150Q182 -216 141 -215Q111 -215 111 -184Z" />
<glyph unicode="-" glyph-name="uni00AD" horiz-adv-x="835" d="M174 672Q135 672 135 713Q135 750 174 750H610Q649 750 649 713Q649 695 638 684T610 672H174Z" />
<glyph unicode="." glyph-name="period" horiz-adv-x="471" d="M168 59T168 102T197 175T270 205T343 175T373 102T343 30T270 0T198 29Z" />
<glyph unicode="/" glyph-name="slash" horiz-adv-x="864" d="M186 2Q141 25 160 70L719 1397Q742 1440 784 1423Q804 1415 811 1397T811 1358L252 31Q240 0 207 0Q192 0 186 2Z" />
<glyph unicode="0" glyph-name="zero" horiz-adv-x="1454" d="M270 217Q133 422 133 717T270 1219Q420 1434 629 1434T987 1219Q1126 1004 1126 717T987 217Q840 0 629 0T270 217ZM354 1161Q233 979 233 717T354 272Q471 100 629 100Q783 100 903 272Q1026 456
1026 716T903 1161Q786 1333 629 1333Q467 1333 354 1161Z" />
<glyph unicode="1" glyph-name="one" horiz-adv-x="686" d="M346 49V1288L143 1169Q131 1161 119 1161Q90 1161 76 1186Q51 1231 94 1253L371 1421Q387 1431 408 1425T438 1403Q447 1385 444 1366V49Q444 29 430 15T396 0T361 14T346 49Z" />
<glyph unicode="2" glyph-name="two" horiz-adv-x="1208" d="M109 14Q76 53 111 88L780 692Q903 805 903 967Q903 1106 807 1212Q698 1333 535 1333Q392 1333 285 1239L215 1176Q199 1162 179 1162T145 1178Q131 1194 131 1214T147 1247L217 1313Q354 1434 535
1434Q744 1434 879 1280Q1002 1149 1001 967Q1001 760 848 618L274 100H952Q972 100 986 85T1001 50T987 15T952 0H154H145Q121 0 109 14Z" />
<glyph unicode="3" glyph-name="three" horiz-adv-x="1249" d="M989 1360Q987 1352 979 1343L608 963Q751 934 854 831Q995 690 995 488T852 143Q709 0 508 0T166 143Q152 157 152 179T166 215T200 229T238 215Q353 104 508 104Q668 104 780 215Q893 328 893 487T780
758Q669 871 510 870Q485 870 469 891H467Q451 905 451 927T467 965L823 1331H274Q254 1331 239 1345T223 1382T238 1419T274 1434H944Q967 1434 981 1420T995 1382Q995 1368 989 1360Z" />
<glyph unicode="4" glyph-name="four" horiz-adv-x="1359" d="M934 49V295H158H156H152Q132 295 121 305Q105 317 103 338T115 375L944 1407L946 1409Q977 1446 1016 1415Q1022 1411 1032 1391Q1032 1389 1033 1385L1034 1382V1376V393H1130Q1150 393 1166 379T1182
345T1167 310T1130 295H1034V49Q1034 29 1019 15T984 0T949 14T934 49ZM256 393H934V1233L256 393Z" />
<glyph unicode="5" glyph-name="five" horiz-adv-x="1239" d="M487 0Q284 0 143 141Q127 155 127 177T143 213Q159 229 180 229T217 213Q332 102 487 102Q645 102 757 215T870 485Q870 647 760 757T490 868T217 756Q201 742 181 742T145 756Q137 762 133 772V774Q131
776 131 780Q129 784 129 797L130 801Q131 805 131 807L201 1384Q201 1407 221 1421Q233 1433 254 1434H922Q942 1434 957 1420T973 1383T959 1346T922 1331H297L246 905Q359 971 489 971Q692 971 831 829Q972 690 972 486T831 141Q686 0 487 0Z" />
<glyph unicode="6" glyph-name="six" horiz-adv-x="1314" d="M131 551Q135 885 270 1120Q440 1419 772 1432Q792 1434 806 1420T823 1384Q823 1364 809 1349T774 1331Q506 1321 356 1071Q288 954 254 784Q395 946 608 946Q807 946 945 807T1083 473Q1083 276 945
138T608 0Q415 0 278 133T135 457Q131 488 131 551ZM236 473V465Q236 455 240 438Q240 428 238 424Q256 287 361 194T608 100Q764 100 874 209T985 473T875 736T608 846Q454 846 345 737T236 473Z" />
<glyph unicode="7" glyph-name="seven" horiz-adv-x="1202" d="M371 4Q353 12 345 31T342 70L872 1327H180Q160 1327 146 1341T131 1376T145 1411T180 1425H938Q954 1429 969 1423Q989 1413 995 1393Q999 1381 999 1376Q999 1360 991 1350L436 31Q422 0 391 0Q379
0 371 4Z" />
<glyph unicode="8" glyph-name="eight" horiz-adv-x="1290" d="M281 1137Q281 1260 367 1347T578 1434Q701 1434 789 1347T877 1137Q877 987 754 895Q883 842 962 725T1042 465Q1042 270 906 135T578 0T249 136T113 465Q113 608 192 725T399 895Q281 987 281 1137ZM211
616T211 465T318 206T578 98Q732 98 838 205T944 464T838 723T578 831Q426 831 319 724ZM379 1221T379 1137T437 995T578 934Q662 936 720 995T778 1137T720 1277T578 1335Q496 1335 438 1278Z" />
<glyph unicode="9" glyph-name="nine" horiz-adv-x="1314" d="M135 963Q135 1158 274 1296T608 1434Q790 1434 924 1314T1079 1016Q1081 1014 1081 1011T1083 1006Q1087 928 1087 883Q1087 553 950 311Q776 12 449 0H446Q423 0 409 13T395 47Q395 96 444 100Q714
110 862 360Q936 489 965 647Q828 489 608 489Q411 489 273 627T135 963ZM608 590Q766 590 874 698T983 963Q983 1117 874 1225T608 1333Q454 1333 345 1225T236 963Q236 807 345 699T608 590Z" />
<glyph unicode=":" glyph-name="colon" horiz-adv-x="491" d="M178 59T178 102T208 175T281 205T353 175T383 102T354 30T281 0T208 29ZM178 920T178 963T208 1035T281 1065T353 1036T383 963T354 890T281 860T208 890Z" />
<glyph unicode=";" glyph-name="uni037E" horiz-adv-x="491" d="M121 -184Q121 -168 137 -158Q241 -101 233 0Q178 14 178 72V115Q178 144 197 163T245 182T293 163T313 115V63Q313 -95 258 -150Q192 -216 152 -215Q121 -215 121 -184ZM139 918T139 961T169 1033T242
1063T314 1034T344 961T315 888T242 858T169 888Z" />
<glyph unicode="&lt;" glyph-name="less" horiz-adv-x="1269" d="M791 18L143 670L141 672Q133 680 131 684L129 688Q127 690 127 694Q125 698 125 705Q122 714 125 723Q125 725 129 737Q133 745 135 748L141 754L143 756L791 1411Q807 1427 832 1427T874 1411Q909
1368 874 1325L264 713L874 98Q888 82 888 59T874 18Q860 0 831 0Q809 0 791 18Z" />
<glyph unicode="=" glyph-name="equal" horiz-adv-x="1269" d="M219 438Q194 438 178 454T162 496Q162 519 178 535T219 551H948Q973 551 989 535T1006 496Q1006 471 990 455T948 438H219ZM219 881Q194 881 178 897T162 936Q162 961 178 977T219 993H948Q973 993
989 977T1006 936Q1006 913 990 897T948 881H219Z" />
<glyph unicode="&gt;" glyph-name="greater" horiz-adv-x="1269" d="M203 18Q189 34 189 58T203 98L813 713L203 1325Q168 1368 203 1411Q219 1427 244 1427T287 1411L934 756L936 754Q952 738 952 713Q952 693 940 676L936 672L934 670L287 18Q271 0 246 0T203 18Z" />
<glyph unicode="?" glyph-name="question" horiz-adv-x="1093" d="M424 332V588V594V596Q424 616 438 629T471 643Q614 643 715 744T817 989Q817 1134 717 1234T471 1337Q375 1337 296 1290T172 1163Q162 1147 143 1142T106 1147Q88 1157 84 1176T90 1212Q147
1314 248 1374T471 1434Q653 1434 783 1304T913 989Q913 821 800 695T520 551V332Q520 312 506 299T471 285Q453 285 439 298T424 332ZM424 47V92Q424 112 438 126T471 141Q491 141 505 127T520 92V47Q520 27 506 14T471 0Q453 0 439 13T424 47Z" />
<glyph unicode="@" glyph-name="at" horiz-adv-x="2007" d="M109 420T109 719T318 1227T827 1436T1335 1226T1544 719Q1544 539 1468 391L1459 377Q1450 363 1435 345T1399 305T1348 265T1282 236Q1268 232 1241 231Q1165 231 1124 287Q1091 336 1092 385V455Q981
332 827 332Q675 332 568 445T461 719Q461 877 568 989T827 1102T1084 990T1190 719V702V692V391H1192Q1190 377 1204 346Q1214 332 1241 332H1257Q1298 342 1332 378T1376 438Q1444 561 1444 719Q1444 973 1263 1154T827 1335T391 1154T209 719Q209 463 391 282T827
100Q921 100 981 117Q1001 121 1018 112T1038 82Q1046 62 1035 45T1004 23Q918 0 827 0Q528 0 319 210ZM567 836T567 719T643 520T827 438Q933 438 1011 520T1090 719T1012 918T828 1001T644 919Z" />
<glyph unicode="A" glyph-name="A" horiz-adv-x="1323" d="M1124 33L997 371H344L217 33Q205 0 170 0Q168 0 162 1T152 2Q134 10 125 29T123 68L621 1397Q635 1428 670 1427Q709 1427 719 1397L1217 68Q1225 50 1217 30T1190 2Q1186 2 1180 1T1171 0Q1136 0 1124
33ZM672 1241L381 471H961L672 1241Z" />
<glyph unicode="B" glyph-name="B" horiz-adv-x="1216" d="M213 49V1384Q213 1404 227 1419T262 1434H268H582Q729 1434 833 1330T938 1075Q938 907 801 797Q924 754 1002 649T1081 410Q1081 240 962 120T672 0H268H262H260Q240 0 227 14T213 49ZM313 100H672Q799
100 889 190T981 410Q979 537 889 628T672 719H313V100ZM313 821H582Q688 821 763 896T838 1075Q838 1181 763 1257T582 1333H313V821Z" />
<glyph unicode="C" glyph-name="C" horiz-adv-x="1579" d="M150 723Q150 1028 368 1240T895 1454Q1153 1454 1358 1296Q1374 1282 1377 1261T1366 1225Q1354 1207 1333 1205T1296 1214Q1118 1353 895 1354Q627 1354 439 1170T250 723Q250 465 438 283T895 100Q1128
100 1292 240Q1310 252 1332 249T1364 227Q1378 213 1376 191T1358 156Q1155 0 895 0Q586 0 368 212T150 723Z" />
<glyph unicode="D" glyph-name="D" horiz-adv-x="1472" d="M530 0H266H258Q240 2 227 15T213 49V1384Q213 1404 227 1419T262 1434H268H530Q827 1434 1037 1223T1247 715T1037 209T530 0ZM313 100H530Q786 100 966 280T1147 715Q1147 971 967 1151T530 1333H313V100Z" />
<glyph unicode="E" glyph-name="E" horiz-adv-x="1214" d="M213 49V1384Q213 1404 227 1419T262 1434H266H999Q1019 1434 1034 1420T1049 1384Q1049 1361 1035 1347T999 1333H313V766H913Q933 766 948 751T963 715T949 680T913 666H313V100H999Q1019 100 1034
86T1049 49Q1049 29 1035 15T999 0H268H262H258Q240 2 227 15T213 49Z" />
<glyph unicode="F" glyph-name="F" horiz-adv-x="1239" d="M213 49V1384Q213 1429 260 1434H268H1001Q1021 1434 1036 1420T1051 1385T1037 1349T1001 1333H313V766H915Q938 766 952 752T967 715Q967 695 952 681T915 666H313V49Q313 29 298 15T263 0T228 14T213 49Z" />
<glyph unicode="G" glyph-name="G" horiz-adv-x="1667" d="M1274 645H883Q860 645 846 659T831 694Q831 717 845 731T883 745H1325H1331Q1349 743 1362 729T1376 694V203V195Q1372 170 1358 158Q1159 0 895 0Q586 2 368 214T150 729Q150 1028 368 1241T895 1454Q1151
1454 1360 1292Q1374 1282 1376 1261T1366 1223Q1337 1186 1294 1214Q1124 1353 895 1354Q627 1354 439 1171T250 729Q250 467 438 284T895 100Q1106 100 1274 223V645Z" />
<glyph unicode="H" glyph-name="H" horiz-adv-x="1452" d="M1051 49V668H313V49Q313 29 298 15T263 0T228 14T213 49V1384Q213 1404 227 1419T262 1434T298 1420T313 1384V766H1051V1384Q1051 1404 1065 1419T1099 1434T1135 1420T1151 1384V49Q1151 29 1136 15T1100
0T1065 14T1051 49Z" />
<glyph unicode="I" glyph-name="I" horiz-adv-x="624" d="M227 49V1384Q227 1404 241 1419T276 1434T312 1420T328 1384V49Q328 29 313 15T277 0T242 14T227 49Z" />
<glyph unicode="J" glyph-name="J" horiz-adv-x="1216" d="M94 336Q88 356 97 374T126 399T165 397T188 369Q227 248 328 173T557 100Q717 100 830 213T944 485V1384Q944 1404 958 1419T993 1434T1028 1420T1042 1384V485Q1042 282 900 141T557 0Q397 0 269 94T94 336Z" />
<glyph unicode="K" glyph-name="K" horiz-adv-x="1464" d="M213 49V1378Q213 1398 227 1414T262 1430T298 1416T313 1378V549L1180 1415Q1196 1429 1216 1429T1249 1415Q1265 1401 1265 1381T1249 1343L700 795L1262 82Q1289 45 1253 10Q1241 0 1221 0Q1196 0
1184 18L629 723L313 408V49Q313 29 298 15T263 0T228 14T213 49Z" />
<glyph unicode="L" glyph-name="L" horiz-adv-x="1153" d="M999 0H266H262Q242 0 228 14T213 49V1384Q213 1404 227 1419T262 1434T298 1420T313 1384V100H999Q1019 100 1035 85T1051 50T1035 15T999 0Z" />
<glyph unicode="M" glyph-name="M" horiz-adv-x="1728" d="M1319 49V1229L860 592Q846 569 819 569H815Q786 569 772 592L313 1227V49Q313 29 299 15T265 0T229 14T213 49V1376Q213 1401 233 1415L238 1419Q279 1446 307 1407L817 700L1325 1407Q1335 1423 1356
1426T1395 1419Q1405 1409 1409 1403Q1417 1387 1417 1376V49Q1417 29 1403 15T1369 0T1334 14T1319 49Z" />
<glyph unicode="N" glyph-name="N" horiz-adv-x="1579" d="M1178 27L317 1223V49Q317 29 303 15T269 0T234 14T219 49V1364Q209 1397 238 1419Q254 1429 275 1426T307 1407L1176 203V1370Q1176 1390 1190 1404T1224 1419T1260 1405T1276 1370V49Q1276 29 1261
15T1225 0Q1200 0 1186 18L1178 27Z" />
<glyph unicode="O" glyph-name="O" horiz-adv-x="1740" d="M150 727Q152 1030 352 1242T842 1454Q1129 1454 1327 1242T1528 727Q1526 424 1327 212T842 0Q553 0 353 212T150 727ZM250 727Q250 465 423 283T842 100Q1080 100 1251 283T1425 727Q1423 991 1252
1171T842 1352Q596 1352 423 1172T250 727Z" />
<glyph unicode="P" glyph-name="P" horiz-adv-x="1193" d="M213 49V1384Q213 1404 227 1419T262 1434H268H668Q836 1434 955 1314T1075 1024Q1075 856 956 736T668 616L313 612V49Q313 29 298 15T263 0T228 14T213 49ZM313 713H668Q795 715 886 806T977 1024T886
1242T668 1333H313V713Z" />
<glyph unicode="Q" glyph-name="Q" horiz-adv-x="1728" d="M1647 -100Q1659 -116 1657 -138T1640 -174Q1482 -295 1317 -295H1315Q1157 -295 958 -178Q878 -133 786 -133Q725 -133 668 -149T596 -178H594Q565 -192 537 -174H535Q523 -156 520 -152Q512 -134 518
-114T543 -84L733 2Q477 37 306 244T135 725Q135 1026 336 1239T823 1454Q1110 1452 1310 1239T1511 725Q1511 502 1395 321T1090 53L883 -43Q955 -57 1008 -88Q1184 -194 1315 -195Q1442 -195 1575 -92Q1616 -63 1647 -100ZM238 985T238 725T410 282T823 98T1237
281T1409 725T1237 1167T824 1350T410 1168Z" />
<glyph unicode="R" glyph-name="R" horiz-adv-x="1280" d="M965 88Q926 162 926 324Q926 455 809 541Q725 600 643 612Q639 614 636 615Q634 616 633 616H285V49Q285 29 270 15T234 0T199 14T184 49V1384Q184 1402 197 1417T229 1434H233H240H639Q809 1434 928
1314T1047 1024Q1047 903 983 803T811 653L831 643Q913 596 968 516T1024 324Q1024 213 1042 158Q1048 135 1063 123Q1106 127 1118 90Q1128 41 1085 25H1081Q1077 25 1072 24T1061 23H1057Q998 22 965 88ZM948 1024Q948 1153 857 1243T639 1333H285V715H629H647Q772
719 860 809T948 1024Z" />
<glyph unicode="S" glyph-name="S" horiz-adv-x="1366" d="M154 205Q121 234 147 268Q159 282 178 284T211 274Q442 88 682 90Q870 90 997 184Q1120 272 1120 397Q1120 514 1004 594Q889 670 672 711H668Q449 752 330 831Q183 927 182 1081Q182 1241 332 1350Q475
1454 678 1454Q766 1454 855 1425T993 1367T1120 1288Q1157 1263 1133 1225Q1123 1209 1105 1206T1071 1212Q997 1259 951 1286T829 1338T678 1364Q506 1364 385 1278Q272 1194 272 1081Q274 979 379 907Q479 837 686 799H690Q926 756 1055 668Q1213 566 1212 397Q1212
227 1051 111Q895 -2 682 -2Q412 0 154 205Z" />
<glyph unicode="T" glyph-name="T" horiz-adv-x="1327" d="M584 49V1333H152Q132 1333 117 1348T102 1384T116 1419T152 1434H1114Q1134 1434 1148 1420T1163 1385T1149 1349T1114 1333H682V49Q682 29 668 15T633 0T598 14T584 49Z" />
<glyph unicode="U" glyph-name="U" horiz-adv-x="1667" d="M215 580V1384Q215 1404 229 1419T264 1434T300 1420T315 1384V580Q315 381 455 242T793 100Q994 102 1134 241T1274 580V1384Q1274 1404 1288 1419T1323 1434T1358 1420T1374 1384V580Q1374 340 1204
170T793 0Q555 0 385 170T215 580Z" />
<glyph unicode="V" glyph-name="V" horiz-adv-x="1536" d="M709 4Q691 10 684 29Q682 29 682 33L680 35L125 1356Q117 1374 125 1393T151 1421T189 1423T217 1397L729 176L1243 1397Q1249 1415 1268 1422T1306 1422T1333 1394T1333 1356L778 45Q774 14 750 4H748Q736
0 729 0Q715 0 711 2L709 4Z" />
<glyph unicode="W" glyph-name="W" horiz-adv-x="2256" d="M141 1413T159 1421T197 1423T225 1397L737 178L1102 1040Q1118 1071 1149 1071Q1184 1071 1200 1040L1563 178L2075 1397Q2098 1442 2142 1421Q2160 1413 2167 1394T2167 1356L1610 33Q1598 4 1569 0H1565H1559Q1545
0 1534 8L1526 16Q1522 20 1518 29Q1518 33 1516 35L1151 901L784 35Q784 29 780 25Q778 19 770 10L766 8Q756 0 737 0Q721 0 707 10L702 14L700 16Q691 25 688 41L135 1356Q127 1374 134 1393Z" />
<glyph unicode="X" glyph-name="X" horiz-adv-x="1478" d="M176 10Q135 41 168 80L629 713L168 1346Q154 1362 157 1383T176 1415Q192 1429 214 1426T246 1407L690 797L1135 1407Q1168 1446 1204 1415Q1220 1405 1224 1384T1214 1346L752 713L1214 80Q1228 64
1225 44T1204 10Q1188 0 1176 0Q1151 0 1135 23L690 631L246 23Q234 0 207 0Q192 0 176 10Z" />
<glyph unicode="Y" glyph-name="Y" horiz-adv-x="1236" d="M606 49V688L125 1346Q98 1389 135 1415Q151 1429 173 1426T205 1407L653 791L1104 1407Q1114 1423 1135 1426T1174 1415Q1190 1405 1193 1384T1184 1346L705 692V49Q705 29 691 15T656 0T621 14T606 49Z" />
<glyph unicode="Z" glyph-name="Z" horiz-adv-x="1366" d="M170 10Q139 30 154 68Q160 80 166 86L1069 1327H201Q181 1327 167 1341T152 1376T166 1411T201 1425H1153Q1173 1431 1194 1417Q1202 1413 1208 1407Q1233 1378 1208 1346L297 100H1169Q1189 100 1204
86T1219 49Q1219 29 1205 15T1169 0H201H197Q195 0 190 1T182 2Q174 6 170 10Z" />
<glyph unicode="[" glyph-name="bracketleft" horiz-adv-x="880" d="M201 -213V1380Q201 1400 217 1417T254 1434H729Q745 1434 756 1422T768 1395T757 1368T729 1356H295V-188H729Q745 -188 756 -200T768 -227T757 -254T729 -266H254Q234 -266 218 -250T201 -213Z" />
<glyph unicode="\" glyph-name="backslash" horiz-adv-x="917" d="M762 6Q756 4 741 4Q708 4 696 35L137 1362Q129 1382 136 1400T164 1427Q207 1443 229 1401L788 74Q807 29 762 6Z" />
<glyph unicode="]" glyph-name="bracketright" horiz-adv-x="880" d="M680 1380V-213Q680 -233 664 -249T627 -266H152Q136 -266 125 -254T113 -228T124 -201T152 -188H586V1356H152Q136 1356 125 1368T113 1394T124 1421T152 1434H627Q647 1434 663 1417T680 1380Z" />
<glyph unicode="^" glyph-name="asciicircum" horiz-adv-x="1024" d="M510 1352L264 1030Q244 1001 193 1001Q164 1001 164 1024Q164 1036 174 1051L446 1411Q477 1448 504 1448H520Q547 1448 578 1411L850 1051Q860 1037 860 1024Q860 1001 829 1001Q776 1001
756 1030L510 1352Z" />
<glyph unicode="_" glyph-name="underscore" horiz-adv-x="1228" d="M-4 -328Q-22 -328 -35 -315T-49 -283T-36 -251T-4 -238H1233Q1251 -238 1264 -251T1278 -282T1265 -314T1233 -328H-4Z" />
<glyph unicode="`" glyph-name="grave" horiz-adv-x="1024" d="M586 1212Q549 1212 520 1239L356 1397Q333 1420 334 1434Q334 1450 362 1465T420 1481Q453 1481 477 1444L604 1253Q612 1241 612 1231Q613 1212 586 1212Z" />
<glyph unicode="a" glyph-name="a" horiz-adv-x="1267" d="M963 1004T983 1004T1018 990T1032 954V49Q1032 29 1018 15T984 0T949 14T934 49V199Q868 107 769 54T557 0Q360 0 221 147T82 502T221 856T557 1004Q670 1004 769 951T934 807V954Q934 974 948 989ZM557
98Q713 98 823 216T934 502T824 788T557 907Q403 907 292 789T180 502T291 216T557 98Z" />
<glyph unicode="b" glyph-name="b" horiz-adv-x="1351" d="M190 49V479V500V520V1384Q190 1404 204 1419T239 1434T275 1420T291 1384V807Q359 897 459 950T676 1004Q879 1004 1020 857T1161 500Q1161 293 1020 147T676 0Q559 0 459 52T291 195V49Q291 29 276
15T240 0T205 14T190 49ZM291 516V500Q291 334 404 217T676 100Q836 100 948 217T1061 500Q1061 668 949 785T676 903Q520 903 409 791T291 516Z" />
<glyph unicode="c" glyph-name="c" horiz-adv-x="1169" d="M635 0Q420 0 270 146T119 504Q119 713 269 858T635 1004Q815 1004 954 893Q970 883 972 863T961 825Q930 790 893 817Q780 907 635 907Q461 907 339 789T217 504Q217 334 339 216T635 98Q778 98 893
186Q930 213 961 178Q994 139 950 106Q813 0 635 0Z" />
<glyph unicode="d" glyph-name="d" horiz-adv-x="1351" d="M993 49V195Q925 105 825 53T608 0Q405 0 264 146T123 500Q123 709 264 856T608 1004Q725 1004 825 951T993 807V1384Q993 1404 1008 1419T1044 1434T1079 1420T1094 1384V520V500V49Q1094 29 1080 15T1045
0T1009 14T993 49ZM608 100Q764 100 875 212T993 483V516Q987 678 876 790T608 903Q450 903 337 786T223 500Q223 334 336 217T608 100Z" />
<glyph unicode="e" glyph-name="e" horiz-adv-x="1247" d="M606 0Q403 0 261 146T119 500Q119 709 261 856T606 1004Q799 1004 936 870T1090 537V535V528Q1090 508 1076 496T1040 483H217Q225 319 338 209T606 98Q706 98 792 147T930 281Q955 322 995 297Q1036
268 1012 227Q946 123 839 62T606 0ZM606 905Q465 905 359 814T223 580H983Q958 721 852 813T606 905Z" />
<glyph unicode="f" glyph-name="f" horiz-adv-x="741" d="M584 1432Q604 1432 618 1417T633 1381T619 1346T584 1331Q490 1331 457 1292Q416 1247 416 1126V1020H557Q577 1020 592 1006T608 971T593 935T557 920H416V47Q416 27 402 13T367 -2T331 12T315 47V920H182Q162
920 148 935T133 970T147 1005T182 1020H315V1126Q319 1286 381 1360Q447 1432 584 1432Z" />
<glyph unicode="g" glyph-name="g" horiz-adv-x="1351" d="M1067 954V80Q1067 -115 929 -253T594 -391Q494 -391 385 -344Q344 -315 365 -279Q388 -232 430 -256Q508 -293 594 -293Q750 -293 859 -185T969 80V203Q906 111 808 59T594 6Q397 6 260 152T123 506Q123
711 261 857T594 1004Q707 1004 806 951T969 807V954Q969 974 984 989T1020 1004Q1038 1004 1052 989T1067 954ZM594 102Q750 102 859 220T969 506T860 789T594 905Q440 905 331 789T221 506Q221 338 330 220T594 102Z" />
<glyph unicode="h" glyph-name="h" horiz-adv-x="1255" d="M928 49V608Q928 737 836 820T608 903Q475 903 383 820T291 608V49V43Q291 41 290 38L289 35L285 27Q276 9 254 2Q252 0 250 0H246H240Q217 0 201 16Q195 24 193 33Q191 39 190 49V608V625V1384Q190 1404
204 1419T239 1434T275 1420T291 1384V856Q416 1003 608 1004Q784 1004 906 892T1028 608V49Q1028 29 1013 15T977 0T942 14T928 49Z" />
<glyph unicode="i" glyph-name="i" horiz-adv-x="575" d="M193 49V954Q193 974 207 989T242 1004Q265 1004 279 990T293 954V49Q293 29 278 15T242 0T207 14T193 49ZM193 1235V1282Q193 1302 207 1316T241 1331T277 1317T293 1282V1235Q293 1212 278 1197T242
1182T207 1197T193 1235Z" />
<glyph unicode="j" glyph-name="j" horiz-adv-x="509" d="M117 1235V1282Q117 1302 133 1316T168 1331Q188 1331 202 1317T217 1282V1235Q217 1215 203 1200T168 1184Q150 1184 134 1199T117 1235ZM-10 -344Q-10 -321 4 -307T39 -293Q68 -293 90 -271T113 -217V952Q113
972 128 988T163 1004T198 989T213 952V-217Q213 -291 163 -341T39 -391Q19 -391 5 -378T-10 -344Z" />
<glyph unicode="k" glyph-name="k" horiz-adv-x="1146" d="M190 49V1384Q190 1404 204 1419T239 1434T275 1420T291 1384V420L885 1012Q920 1047 954 1012Q970 998 970 978T954 942L567 555L956 82Q987 45 952 10Q940 0 920 0Q891 0 881 18L496 483L291 279V49Q291
29 276 15T240 0T205 14T190 49Z" />
<glyph unicode="l" glyph-name="l" horiz-adv-x="509" d="M205 49V1384Q205 1404 219 1419T253 1434T289 1420T305 1384V49Q305 29 290 15T254 0T219 14T205 49Z" />
<glyph unicode="m" glyph-name="m" horiz-adv-x="1947" d="M1626 47V594Q1622 723 1532 814T1315 905T1097 813T1006 594V47V41L1004 37V33Q1000 19 979 6Q967 0 954 0H948H944L940 2L928 8Q926 8 922 12L915 18L911 23Q911 25 909 27Q909 29 907 31Q907 35 905
37V43V47V594Q905 723 815 814T596 905T377 814T287 594V47Q287 20 264 8Q258 2 252 2Q250 0 244 0H238H231Q200 4 190 37V47V594V610V954Q190 974 204 987T238 1001Q258 1001 272 988T287 954V858Q408 1001 596 1001Q711 1001 806 943T954 788Q1009 884 1105 942T1315
1001Q1483 1001 1602 882T1722 594V47Q1722 29 1708 15T1674 0T1640 14T1626 47Z" />
<glyph unicode="n" glyph-name="n" horiz-adv-x="1255" d="M907 49V594Q907 721 817 812T598 903Q471 903 381 813T287 594V49V41Q283 25 276 18Q264 0 240 0H227Q204 6 195 27Q193 29 193 33L190 37V49V594V610V952Q190 972 204 986T239 1001T273 987T287 952V856Q408
1001 598 1001Q766 1001 886 882T1006 594V49Q1006 29 992 15T957 0T922 14T907 49Z" />
<glyph unicode="o" glyph-name="o" horiz-adv-x="1280" d="M143 297T143 502T282 855T618 1004T954 856T1094 502T955 149T619 0T283 148ZM242 502Q242 336 353 217T618 98T883 217T995 502Q995 670 884 788T619 907T354 789T242 502Z" />
<glyph unicode="p" glyph-name="p" horiz-adv-x="1351" d="M190 -371V485V506V526V954Q190 974 204 989T239 1004T275 990T291 954V809Q357 899 457 951T672 1004Q875 1004 1016 859T1157 506Q1157 301 1016 154T672 6Q557 6 457 59T291 203V-371Q291 -391 276
-405T240 -420T205 -406T190 -371ZM291 522V506Q291 340 403 223T672 104Q832 106 944 223T1057 506T944 787T672 903Q520 903 409 793T291 522Z" />
<glyph unicode="q" glyph-name="q" horiz-adv-x="1351" d="M989 -371V203Q921 111 820 58T604 4Q405 6 264 153T123 506T264 857T604 1004Q721 1004 821 951T989 807V954Q989 974 1003 989T1038 1004Q1061 1004 1075 990T1090 954V526V506V485V-371Q1090 -391
1076 -405T1038 -420Q1018 -420 1004 -406T989 -371ZM223 672T223 506T334 223T604 104Q764 106 876 223T989 506T877 787T604 903Q446 903 335 788Z" />
<glyph unicode="r" glyph-name="r" horiz-adv-x="899" d="M190 49V952Q190 972 204 986T242 1001Q260 1001 274 987T289 952V731Q297 747 303 756Q461 1002 705 1001Q725 1001 739 987T754 953T740 918T705 903Q541 903 414 739Q340 641 293 506Q289 498 289 489V49Q289
29 275 15T242 0Q219 0 205 14T190 49Z" />
<glyph unicode="s" glyph-name="s" horiz-adv-x="1007" d="M127 143Q92 174 121 209Q133 225 153 227T190 215Q350 98 498 98Q613 98 688 160Q764 211 764 283Q762 349 692 406Q629 455 479 479L475 481Q315 510 248 559Q139 622 139 739T248 936Q346 1004 494
1004Q553 1004 613 985T705 948T793 895Q809 883 813 863T807 826T777 805T739 811Q688 846 662 861T587 894T494 911Q375 911 303 854Q240 803 240 739Q240 684 297 639Q369 590 502 569H506Q639 549 750 487Q863 413 862 283Q862 166 748 80Q639 0 498 0Q303
2 127 143Z" />
<glyph unicode="t" glyph-name="t" horiz-adv-x="819" d="M492 1004Q510 1004 525 989T541 955T526 921T492 905H362V174Q362 141 388 121T436 100Q454 100 470 84T487 50T471 16T436 0Q360 0 310 49T260 174V905H135Q102 905 94 917T86 954Q86 970 88 978T101
995T135 1004H260V1376Q260 1394 275 1409T309 1425Q329 1425 345 1410T362 1376V1004H492Z" />
<glyph unicode="u" glyph-name="u" horiz-adv-x="1255" d="M170 410V956Q170 976 184 991T219 1006T254 992T268 956V410Q268 281 358 191T575 98Q704 100 795 190T887 410V956Q887 976 902 991T936 1006Q959 1006 973 992T987 956V410Q987 240 868 120T575 0Q407
0 289 120T170 410Z" />
<glyph unicode="v" glyph-name="v" horiz-adv-x="1191" d="M522 4Q520 4 512 8Q500 20 496 31L119 928Q111 946 119 964T143 991Q161 999 181 991T207 965L541 174L874 965Q880 983 900 991T938 991Q981 973 963 928L588 39Q585 27 575 14Q563 0 543 0Q533 0 526
2Q524 2 522 4Z" />
<glyph unicode="w" glyph-name="w" horiz-adv-x="1763" d="M535 4Q531 4 526 8Q512 14 506 31L129 928Q121 946 129 964T154 991Q172 999 191 991T217 965L551 174L782 725Q796 756 829 756Q864 756 879 725L1110 174L1442 965Q1450 983 1469 991T1505 991Q1523
983 1531 965T1532 928L1157 35Q1151 20 1139 10Q1125 0 1114 0H1110H1104Q1071 4 1065 31L1063 33L829 588L598 35Q596 33 596 31Q586 0 553 0Q547 0 535 4Z" />
<glyph unicode="x" glyph-name="x" horiz-adv-x="1167" d="M162 10Q127 39 152 78L459 498L152 920Q127 961 162 989Q176 999 197 996T229 977L520 582L809 977Q821 993 840 996T874 989Q913 962 889 920L580 498L889 78Q916 37 874 10Q864 0 850 0Q821 0 809
20L520 416L229 20Q217 0 190 0Q178 0 162 10Z" />
<glyph unicode="y" glyph-name="y" horiz-adv-x="1204" d="M106 412V956Q106 976 120 990T154 1004Q177 1004 191 991T205 956V412Q205 283 295 193T512 102Q641 102 731 192T823 412V956Q823 972 831 981Q831 983 833 984L834 987Q836 987 836 988T838 989Q844
997 856 1001H860L862 1002Q864 1003 866 1004H872H879Q887 1002 903 993Q913 983 915 977Q921 967 922 956V412V393V80Q922 -117 783 -254T444 -391Q342 -391 238 -344Q197 -317 217 -279Q235 -242 281 -254Q359 -293 444 -293Q600 -293 710 -185T823 80V145Q696
2 512 2Q344 4 225 124T106 412Z" />
<glyph unicode="z" glyph-name="z" horiz-adv-x="1134" d="M733 897H174Q154 897 140 911T125 946T139 981T174 995H823Q839 997 858 987L864 981L866 979Q886 959 877 934Q873 916 858 907L268 98H829Q849 98 864 84T879 50T865 15T829 0H174Q139 0 129 29L127
31Q125 37 125 49V51Q125 74 141 86L733 897Z" />
<glyph unicode="{" glyph-name="braceleft" horiz-adv-x="983" d="M831 -285Q587 -236 504 -141T420 127V289Q420 420 366 484T162 549Q113 549 113 588T162 627Q312 627 366 691T420 887V1049Q420 1221 504 1316T831 1460Q849 1464 861 1455T874 1427Q874 1402
850 1395Q637 1340 579 1269T520 1036V883Q520 754 466 686T307 588Q418 551 469 487T520 293V139Q520 -23 578 -93T850 -219Q875 -227 874 -252Q874 -270 862 -279T831 -285Z" />
<glyph unicode="|" glyph-name="bar" horiz-adv-x="585" d="M248 -225V1597Q248 1615 261 1628T292 1642T324 1629T338 1597V-225Q338 -243 325 -256T293 -270T261 -257T248 -225Z" />
<glyph unicode="}" glyph-name="braceright" horiz-adv-x="983" d="M152 1460Q396 1411 479 1316T563 1049V887Q563 756 617 692T821 627Q870 627 870 588T821 549Q671 549 617 485T563 289V127Q563 -45 479 -140T152 -285Q134 -289 122 -280T109 -252Q109 -227
133 -219Q346 -164 404 -94T463 139V293Q463 422 517 489T676 588Q565 625 514 689T463 883V1036Q463 1198 405 1268T133 1395Q108 1403 109 1427Q109 1445 121 1454T152 1460Z" />
<glyph unicode="~" glyph-name="asciitilde" horiz-adv-x="942" d="M248 520Q234 491 211 492Q174 492 174 526Q174 538 178 551Q207 637 245 671T340 705Q381 705 475 663T602 621T655 638T694 698Q708 727 731 727Q768 727 768 692Q768 680 764 668Q735 582
697 548T602 514Q561 514 467 556T340 598T287 581T248 520Z" />
<glyph unicode="&#xa0;" glyph-name="uni00A0" horiz-adv-x="614" />
<glyph unicode="&#xa1;" glyph-name="exclamdown" horiz-adv-x="516" d="M190 1077Q190 1097 204 1112T240 1128Q263 1128 277 1113T291 1077V49Q291 29 276 15T240 0T205 14T190 49V1077ZM190 1384Q190 1404 204 1419T239 1434T275 1420T291 1384V1335Q291 1315
276 1301T240 1286T205 1300T190 1335V1384Z" />
<glyph unicode="&#xa2;" glyph-name="cent" horiz-adv-x="1189" d="M449 43L483 211Q323 266 225 407T127 723V727Q127 948 282 1111T659 1274H690L717 1413Q725 1454 766 1454Q791 1454 806 1436T815 1391L788 1260Q923 1227 1053 1106Q1071 1088 1071 1065T1057
1028T1022 1014Q999 1014 983 1030Q872 1139 764 1165L592 281Q629 275 666 274Q844 274 993 424Q1011 442 1032 442Q1050 442 1063 428T1077 396T1063 362Q891 180 659 180Q606 180 580 184L547 20Q539 -21 498 -20Q473 -20 458 -2T449 43ZM236 727Q236 584 311
469T508 305L676 1180H657Q479 1180 358 1050T236 731V727Z" />
<glyph unicode="&#xa3;" glyph-name="sterling" horiz-adv-x="1318" d="M135 27Q135 50 160 55L319 92V625H184Q164 625 150 639T135 673T149 708T184 723H319V965Q319 1203 453 1335Q572 1454 760 1454Q1008 1454 1169 1264Q1183 1246 1183 1225T1170 1190T1133
1176T1092 1194Q1022 1274 946 1316T758 1358Q615 1358 526 1270Q424 1168 424 967V723H993Q1013 723 1027 709T1042 674T1028 639T993 625H424V96H1149Q1169 96 1183 82T1198 48T1184 14T1149 0H162Q135 0 135 27Z" />
<glyph unicode="&#xa5;" glyph-name="yen" horiz-adv-x="1404" d="M604 49V342H289Q264 342 248 358T231 399Q231 422 247 438T289 455H604V659H289Q264 659 248 675T231 715Q231 740 247 756T289 772H543L123 1346Q96 1389 133 1415Q149 1429 171 1426T203 1407L651
791L1102 1407Q1112 1423 1133 1426T1171 1415Q1187 1405 1190 1384T1182 1346L760 772H1018Q1043 772 1059 756T1075 715Q1075 692 1059 676T1018 659H702V455H1018Q1043 455 1059 439T1075 399Q1075 374 1059 358T1018 342H702V49Q702 29 688 15T654 0T619 14T604
49Z" />
<glyph unicode="&#xa8;" glyph-name="dieresis" horiz-adv-x="1024" d="M272 1268T272 1304T298 1367T360 1393T423 1367T449 1305T423 1243T361 1217T298 1242ZM610 1268T610 1304T636 1367T698 1393T760 1367T786 1305T761 1243T699 1217T636 1242Z" />
<glyph unicode="&#xa9;" glyph-name="copyright" horiz-adv-x="1699" d="M1157 -25T848 -25T324 191T109 713V717Q109 1022 326 1240T852 1458T1376 1242T1591 721V717Q1591 412 1374 194ZM559 33T848 33T1333 232T1530 717V721Q1530 1004 1336 1202T852 1401T367
1201T170 717V713Q170 430 364 232ZM858 340Q700 340 593 452T485 725V729Q485 887 593 1001T860 1116Q1007 1116 1124 1014Q1142 1000 1143 977Q1143 959 1130 947T1098 934Q1084 934 1065 948Q965 1034 858 1034Q737 1034 656 945T575 731V727Q575 602 658 512T860
422Q977 422 1077 512Q1093 522 1106 522Q1122 522 1134 510T1147 481Q1147 461 1133 451Q1005 340 858 340Z" />
<glyph unicode="&#xaa;" glyph-name="ordfeminine" horiz-adv-x="798" d="M217 600Q201 600 189 612T176 641T188 669T217 682H668Q684 682 696 670T709 641T697 613T668 600H217ZM678 1415T690 1415T712 1406T723 1384V809Q723 797 713 788T690 778T669 787T659
809V905Q567 778 420 778Q295 778 207 872T119 1098T207 1322T420 1415Q567 1415 659 1290V1384Q659 1396 668 1405ZM420 842Q520 842 589 915T659 1098Q659 1204 590 1279T420 1354Q324 1354 253 1279T182 1098Q182 989 252 916T420 842Z" />
<glyph unicode="&#xab;" glyph-name="guillemotleft" horiz-adv-x="1054" d="M870 88Q847 88 831 111L551 477Q531 504 531 522T551 567L831 934Q847 957 870 956Q888 956 901 944T915 913Q915 893 903 879L645 524L903 166Q915 148 915 131Q911 88 870 88ZM453
88Q430 88 414 111L133 477Q113 504 113 522T133 567L414 934Q430 957 453 956Q471 956 484 944T498 913Q498 893 485 879L227 524L485 166Q497 152 498 131Q498 113 485 101T453 88Z" />
<glyph unicode="&#xae;" glyph-name="registered" horiz-adv-x="851" d="M426 737Q276 737 173 841T70 1094V1096Q70 1243 174 1348T426 1454Q576 1454 679 1350T782 1098V1096Q782 949 678 843T426 737ZM293 776T426 776T650 870T741 1096V1098Q741 1229 650
1322T426 1415T202 1321T111 1096V1094Q111 963 202 870ZM541 891Q549 871 569 870H571Q573 870 575 871T580 872Q592 876 588 893Q584 903 571 903Q567 905 565 913Q559 929 559 965Q559 1035 498 1067Q494 1067 492 1069Q566 1104 565 1186Q565 1239 529 1277T438
1315H313H311H309Q295 1315 295 1298V881Q295 865 311 865T328 881V1059H436L438 1057Q471 1049 492 1034Q529 1007 528 965Q529 914 541 891ZM535 1225T535 1186T507 1119T440 1090H434H328V1282H438Q479 1282 507 1254Z" />
<glyph unicode="&#xb0;" glyph-name="degree" horiz-adv-x="921" d="M584 844T461 844T245 934T152 1143V1147Q152 1266 245 1356T461 1446T677 1356T770 1147V1143Q770 1024 677 934ZM373 934T461 934T608 996T668 1143V1147Q668 1231 609 1293T461 1356T314
1294T254 1147V1143Q254 1059 313 997Z" />
<glyph unicode="&#xb4;" glyph-name="acute" horiz-adv-x="1024" d="M438 1212Q411 1212 412 1231Q412 1241 420 1253L547 1444Q572 1481 604 1481Q633 1481 661 1466T690 1434Q690 1420 668 1397L504 1239Q475 1212 438 1212Z" />
<glyph unicode="&#xb6;" glyph-name="paragraph" horiz-adv-x="983" d="M682 45V567H670Q426 567 268 683T109 999V1004Q109 1203 256 1318T639 1434H735Q758 1434 774 1418T791 1378V45Q791 22 776 7T738 -8T699 7T682 45Z" />
<glyph unicode="&#xb7;" glyph-name="middot" horiz-adv-x="471" d="M168 637Q168 666 187 685T235 705T283 686T303 637V582Q303 553 284 534T236 514T188 533T168 582V637Z" />
<glyph unicode="&#xb8;" glyph-name="cedilla" horiz-adv-x="1024" d="M604 20L471 -250Q451 -291 418 -291Q393 -291 371 -275T348 -242Q348 -230 358 -211L516 20H604Z" />
<glyph unicode="&#xba;" glyph-name="ordmasculine" horiz-adv-x="798" d="M397 842Q272 842 188 929T104 1139V1143Q104 1266 189 1355T401 1444Q526 1444 610 1357T694 1147V1143Q694 1020 609 931T397 842ZM137 600Q121 600 109 612T96 641T108 669T137 682H662Q678
682 690 670T702 641T690 613T662 600H137ZM401 922Q491 922 548 985T606 1139V1143Q606 1235 546 1299T397 1364Q307 1364 250 1301T193 1147V1143Q193 1051 253 987T401 922Z" />
<glyph unicode="&#xbb;" glyph-name="guillemotright" horiz-adv-x="1054" d="M602 956Q625 956 641 934L922 567Q942 540 942 522T922 477L641 111Q625 88 602 88Q584 88 571 100T557 131Q557 151 569 166L827 520L569 879Q557 893 557 913Q557 931 570 943T602
956ZM184 956Q207 956 223 934L504 567Q524 540 524 522T504 477L223 111Q207 88 184 88Q166 88 153 100T139 131Q139 151 152 166L410 520L152 879Q138 899 139 913Q143 956 184 956Z" />
<glyph unicode="&#xbf;" glyph-name="questiondown" horiz-adv-x="1093" d="M455 1102Q455 1122 469 1135T502 1149Q522 1149 536 1136T551 1102V883Q717 865 830 739T944 444Q944 260 814 130T502 0Q381 0 280 59T121 221Q111 237 115 256T137 287Q153 297 173
292T203 270Q248 190 327 143T502 96Q647 98 747 198T848 444Q848 587 747 689T502 791Q484 791 470 804T455 838V840V846V1102ZM455 1386Q455 1406 469 1420T502 1434Q522 1434 536 1421T551 1386V1341Q551 1321 537 1307T502 1292Q484 1292 470 1306T455 1341V1386Z"
/>
<glyph unicode="&#xc0;" glyph-name="Agrave" horiz-adv-x="1329" d="M1124 33Q1136 0 1171 0Q1173 0 1179 1T1190 2Q1208 10 1216 29T1217 68L719 1397Q709 1428 670 1427Q635 1427 621 1397L123 68Q115 50 124 30T152 2Q156 2 162 1T170 0Q205 0 217 33L344
371H997L1124 33ZM381 471L672 1241L961 471H381ZM782 1622Q745 1622 717 1649L553 1806Q530 1829 530 1843Q530 1859 559 1874T616 1890Q649 1890 674 1853L801 1663Q809 1651 809 1640Q809 1622 782 1622Z" />
<glyph unicode="&#xc1;" glyph-name="Aacute" horiz-adv-x="1323" d="M1124 33Q1136 0 1171 0Q1173 0 1179 1T1190 2Q1208 10 1216 29T1217 68L719 1397Q709 1428 670 1427Q635 1427 621 1397L123 68Q115 50 124 30T152 2Q156 2 162 1T170 0Q205 0 217 33L344
371H997L1124 33ZM381 471L672 1241L961 471H381ZM559 1622Q532 1622 532 1640Q532 1650 541 1663L668 1853Q693 1890 725 1890Q754 1890 782 1875T811 1843Q811 1829 788 1806L625 1649Q596 1622 559 1622Z" />
<glyph unicode="&#xc2;" glyph-name="Acircumflex" horiz-adv-x="1359" d="M1126 33Q1138 0 1174 0Q1176 0 1182 1T1192 2Q1210 10 1218 29T1219 68L721 1397Q711 1428 672 1427Q637 1427 623 1397L125 68Q117 50 126 30T154 2Q158 2 164 1T172 0Q207 0 219 33L346
371H999L1126 33ZM383 471L674 1241L963 471H383ZM672 1767L543 1649Q514 1622 477 1622Q450 1622 451 1642Q451 1654 461 1667L608 1847Q639 1884 666 1884H682Q709 1884 739 1847L887 1667Q897 1655 897 1642Q897 1622 868 1622Q829 1622 801 1649L672 1767Z"
/>
<glyph unicode="&#xc3;" glyph-name="Atilde" horiz-adv-x="1359" d="M1126 33Q1138 0 1174 0Q1176 0 1182 1T1192 2Q1210 10 1218 29T1219 68L721 1397Q711 1428 672 1427Q637 1427 623 1397L125 68Q117 50 126 30T154 2Q158 2 164 1T172 0Q207 0 219 33L346
371H999L1126 33ZM383 471L674 1241L963 471H383ZM451 1634Q437 1605 414 1606Q377 1606 377 1640Q377 1652 381 1665Q410 1751 447 1785T543 1819Q582 1819 676 1777T805 1735Q838 1735 858 1752T897 1812Q911 1841 934 1841Q971 1841 971 1806Q971 1794 967 1782Q938
1696 900 1662T805 1628Q766 1628 672 1670T543 1712Q510 1712 490 1695T451 1634Z" />
<glyph unicode="&#xc4;" glyph-name="Adieresis" horiz-adv-x="1357" d="M1126 33Q1138 0 1174 0Q1176 0 1182 1T1192 2Q1210 10 1218 29T1219 68L721 1397Q711 1428 672 1427Q637 1427 623 1397L125 68Q117 50 126 30T154 2Q158 2 164 1T172 0Q207 0 219 33L346
371H999L1126 33ZM383 471L674 1241L963 471H383ZM418 1677T418 1714T443 1776T506 1802T568 1777T594 1714T569 1652T506 1626T444 1651ZM756 1677T756 1714T781 1776T844 1802T906 1777T932 1714T907 1652T844 1626T782 1651Z" />
<glyph unicode="&#xc5;" glyph-name="Aring" horiz-adv-x="1323" d="M1192 68Q1200 50 1192 30T1165 2Q1161 2 1155 1T1147 0Q1112 0 1100 33L973 371H319L193 33Q181 0 145 0Q143 0 137 1T127 2Q109 10 100 29T98 68L559 1296Q467 1349 467 1448V1450Q467 1524
522 1577T649 1630Q725 1630 781 1577T838 1450V1448Q838 1344 733 1290L1192 68ZM555 1448Q555 1405 588 1378Q617 1353 649 1354Q678 1354 705 1370Q750 1397 750 1448V1450Q750 1489 721 1519T649 1550Q612 1550 584 1520T555 1450V1448ZM356 471H936L647 1241L356
471Z" />
<glyph unicode="&#xc6;" glyph-name="AE" horiz-adv-x="2140" d="M72 39Q72 51 82 68L889 1401Q909 1434 942 1434H1960Q1980 1434 1994 1420T2009 1385T1995 1350T1960 1335H1118V772H1868Q1888 772 1902 758T1917 723T1903 688T1868 674H1118V98H1970Q1990 98
2004 84T2019 50T2005 15T1970 0H1065Q1045 0 1029 16T1012 53V401H397L166 16Q150 -11 121 -10Q101 -10 87 4T72 39ZM455 498H1012V1337H958L455 498Z" />
<glyph unicode="&#xc7;" glyph-name="Ccedilla" horiz-adv-x="1579" d="M150 723Q150 1028 368 1240T895 1454Q1153 1454 1358 1296Q1374 1282 1377 1261T1366 1225Q1354 1207 1333 1205T1296 1214Q1118 1353 895 1354Q627 1354 439 1170T250 723Q250 465 438
283T895 100Q1128 100 1292 240Q1310 252 1332 249T1364 227Q1378 213 1376 191T1358 156Q1155 0 895 0Q586 0 368 212T150 723ZM918 20L784 -250Q764 -291 731 -291Q706 -291 684 -275T662 -242Q662 -230 672 -211L829 20H918Z" />
<glyph unicode="&#xc8;" glyph-name="Egrave" horiz-adv-x="1214" d="M213 49Q213 29 226 16T258 0H262H268H999Q1019 0 1034 14T1049 49Q1049 72 1035 86T999 100H313V666H913Q933 666 948 680T963 714T949 750T913 766H313V1333H999Q1019 1333 1034 1347T1049
1384Q1049 1404 1035 1419T999 1434H266H262Q242 1434 228 1420T213 1384V49ZM745 1622Q708 1622 680 1649L516 1806Q493 1829 494 1843Q494 1859 522 1874T580 1890Q613 1890 637 1853L764 1663Q772 1651 772 1640Q772 1622 745 1622Z" />
<glyph unicode="&#xc9;" glyph-name="Eacute" horiz-adv-x="1214" d="M213 49Q213 29 226 16T258 0H262H268H999Q1019 0 1034 14T1049 49Q1049 72 1035 86T999 100H313V666H913Q933 666 948 680T963 714T949 750T913 766H313V1333H999Q1019 1333 1034 1347T1049
1384Q1049 1404 1035 1419T999 1434H266H262Q242 1434 228 1420T213 1384V49ZM514 1622Q487 1622 487 1640Q487 1650 496 1663L623 1853Q648 1890 680 1890Q709 1890 737 1875T766 1843Q766 1829 743 1806L580 1649Q551 1622 514 1622Z" />
<glyph unicode="&#xca;" glyph-name="Ecircumflex" horiz-adv-x="1214" d="M213 49Q213 29 226 16T258 0H262H268H999Q1019 0 1034 14T1049 49Q1049 72 1035 86T999 100H313V666H913Q933 666 948 680T963 714T949 750T913 766H313V1333H999Q1019 1333 1034 1347T1049
1384Q1049 1404 1035 1419T999 1434H266H262Q242 1434 228 1420T213 1384V49ZM625 1767L496 1649Q467 1622 430 1622Q403 1622 403 1642Q403 1654 414 1667L561 1847Q592 1884 618 1884H635Q662 1884 692 1847L840 1667Q850 1655 850 1642Q850 1622 821 1622Q782
1622 754 1649L625 1767Z" />
<glyph unicode="&#xcb;" glyph-name="Edieresis" horiz-adv-x="1372" d="M213 49Q213 29 226 16T258 0H262H268H999Q1019 0 1034 14T1049 49Q1049 72 1035 86T999 100H313V666H913Q933 666 948 680T963 714T949 750T913 766H313V1333H999Q1019 1333 1034 1347T1049
1384Q1049 1404 1035 1419T999 1434H266H262Q242 1434 228 1420T213 1384V49ZM371 1677T371 1714T396 1776T459 1802T521 1777T547 1714T522 1652T459 1626T397 1651ZM709 1677T709 1714T734 1776T797 1802T859 1777T885 1714T860 1652T797 1626T735 1651Z" />
<glyph unicode="&#xcc;" glyph-name="Igrave" horiz-adv-x="712" d="M391 49Q391 29 405 15T440 0T476 14T492 49V1384Q492 1404 477 1419T441 1434T406 1420T391 1384V49ZM555 1622Q518 1622 489 1649L326 1806Q303 1829 303 1843Q303 1859 331 1874T389 1890Q422
1890 446 1853L573 1663Q581 1651 582 1640Q582 1622 555 1622Z" />
<glyph unicode="&#xcd;" glyph-name="Iacute" horiz-adv-x="561" d="M260 49Q260 29 274 15T309 0T345 14T360 49V1384Q360 1404 345 1419T310 1434T275 1420T260 1384V49ZM197 1622Q170 1622 170 1640Q170 1650 178 1663L305 1853Q330 1890 362 1890Q391 1890
420 1875T449 1843Q449 1829 426 1806L262 1649Q234 1622 197 1622Z" />
<glyph unicode="&#xce;" glyph-name="Icircumflex" horiz-adv-x="561" d="M176 49Q176 29 190 15T225 0T261 14T276 49V1384Q276 1404 261 1419T226 1434T191 1420T176 1384V49ZM223 1767L94 1649Q65 1622 29 1622Q2 1622 2 1642Q2 1654 12 1667L160 1847Q191
1884 217 1884H233Q260 1884 291 1847L438 1667Q448 1655 449 1642Q449 1622 420 1622Q381 1622 352 1649L223 1767Z" />
<glyph unicode="&#xcf;" glyph-name="Idieresis" horiz-adv-x="561" d="M190 49Q190 29 204 15T239 0T275 14T291 49V1384Q291 1404 276 1419T240 1434T205 1420T190 1384V49ZM-16 1677T-16 1714T9 1776T72 1802T134 1777T160 1714T135 1652T72 1626T10 1651ZM322
1677T322 1714T347 1776T409 1802T472 1777T498 1714T472 1652T410 1626T348 1651Z" />
<glyph unicode="&#xd1;" glyph-name="Ntilde" horiz-adv-x="1617" d="M1178 27L1186 18Q1200 0 1225 0Q1245 0 1260 14T1276 49V1370Q1276 1390 1261 1404T1225 1419T1190 1405T1176 1370V203L307 1407Q297 1423 276 1426T238 1419Q209 1396 219 1364V49Q219 29
233 15T268 0T303 14T317 49V1223L1178 27ZM522 1634Q508 1605 485 1606Q448 1606 449 1640Q449 1652 453 1665Q482 1751 519 1785T614 1819Q655 1819 749 1777T876 1735T929 1752T969 1812Q983 1841 1006 1841Q1043 1841 1042 1806Q1042 1794 1038 1782Q1009 1696
972 1662T877 1628Q836 1628 742 1670T615 1712T561 1695T522 1634Z" />
<glyph unicode="&#xd2;" glyph-name="Ograve" horiz-adv-x="1740" d="M150 727Q152 424 352 212T842 0Q1129 0 1327 212T1528 727Q1526 1030 1327 1242T842 1454Q553 1454 353 1242T150 727ZM250 727Q250 991 423 1171T842 1352Q1082 1352 1252 1172T1425 727Q1423
467 1251 284T842 100Q596 100 423 282T250 727ZM952 1622Q915 1622 887 1649L723 1806Q700 1829 700 1843Q700 1859 729 1874T786 1890Q819 1890 844 1853L971 1663Q979 1651 979 1640Q979 1622 952 1622Z" />
<glyph unicode="&#xd3;" glyph-name="Oacute" horiz-adv-x="1740" d="M150 727Q152 424 352 212T842 0Q1129 0 1327 212T1528 727Q1526 1030 1327 1242T842 1454Q553 1454 353 1242T150 727ZM250 727Q250 991 423 1171T842 1352Q1082 1352 1252 1172T1425 727Q1423
467 1251 284T842 100Q596 100 423 282T250 727ZM723 1622Q696 1622 696 1640Q696 1650 705 1663L831 1853Q856 1890 889 1890Q918 1890 946 1875T975 1843Q975 1829 952 1806L788 1649Q760 1622 723 1622Z" />
<glyph unicode="&#xd4;" glyph-name="Ocircumflex" horiz-adv-x="1740" d="M150 727Q152 424 352 212T842 0Q1129 0 1327 212T1528 727Q1526 1030 1327 1242T842 1454Q553 1454 353 1242T150 727ZM250 727Q250 991 423 1171T842 1352Q1082 1352 1252 1172T1425
727Q1423 467 1251 284T842 100Q596 100 423 282T250 727ZM838 1767L709 1649Q680 1622 643 1622Q616 1622 616 1642Q616 1654 627 1667L774 1847Q805 1884 831 1884H848Q875 1884 905 1847L1053 1667Q1063 1655 1063 1642Q1063 1622 1034 1622Q995 1622 967 1649L838
1767Z" />
<glyph unicode="&#xd5;" glyph-name="Otilde" horiz-adv-x="1740" d="M150 727Q152 424 352 212T842 0Q1129 0 1327 212T1528 727Q1526 1030 1327 1242T842 1454Q553 1454 353 1242T150 727ZM250 727Q250 991 423 1171T842 1352Q1082 1352 1252 1172T1425 727Q1423
467 1251 284T842 100Q596 100 423 282T250 727ZM614 1634Q600 1605 578 1606Q541 1606 541 1640Q541 1652 545 1665Q574 1751 611 1785T707 1819Q746 1819 840 1777T969 1735Q1002 1735 1022 1752T1061 1812Q1075 1841 1098 1841Q1135 1841 1135 1806Q1135 1794
1130 1782Q1101 1696 1064 1662T969 1628Q930 1628 836 1670T707 1712Q674 1712 653 1695T614 1634Z" />
<glyph unicode="&#xd6;" glyph-name="Odieresis" horiz-adv-x="1740" d="M150 727Q152 424 352 212T842 0Q1129 0 1327 212T1528 727Q1526 1030 1327 1242T842 1454Q553 1454 353 1242T150 727ZM250 727Q250 991 423 1171T842 1352Q1082 1352 1252 1172T1425 727Q1423
467 1251 284T842 100Q596 100 423 282T250 727ZM582 1677T582 1714T607 1776T670 1802T732 1777T758 1714T733 1652T670 1626T608 1651ZM920 1677T920 1714T945 1776T1007 1802T1070 1777T1096 1714T1070 1652T1008 1626T946 1651Z" />
<glyph unicode="&#xd8;" glyph-name="Oslash" horiz-adv-x="1740" d="M868 -25Q596 -25 401 143L264 -2Q248 -18 227 -18Q209 -18 197 -6T184 25Q184 45 197 57L336 207Q150 420 150 713V717Q150 1020 352 1239T872 1458Q1142 1458 1339 1288L1477 1436Q1493 1452
1513 1452Q1531 1452 1543 1440T1556 1409Q1556 1389 1544 1376L1403 1225Q1591 1018 1591 721V717Q1591 414 1388 195T868 -25ZM260 717Q260 467 412 287L1270 1208Q1100 1362 868 1362Q606 1362 433 1176T260 721V717ZM872 72Q1134 72 1307 258T1481 713V717Q1481
961 1329 1145L469 225Q639 72 872 72Z" />
<glyph unicode="&#xd9;" glyph-name="Ugrave" horiz-adv-x="1556" d="M190 580Q190 340 360 170T768 0Q1010 0 1180 170T1350 580V1384Q1350 1404 1335 1419T1299 1434T1264 1420T1249 1384V580Q1249 381 1109 242T768 100Q571 102 431 241T291 580V1384Q291 1404
276 1419T240 1434T205 1420T190 1384V580ZM883 1622Q846 1622 817 1649L653 1806Q630 1829 631 1843Q631 1859 659 1874T717 1890Q750 1890 774 1853L901 1663Q909 1651 909 1640Q910 1622 883 1622Z" />
<glyph unicode="&#xda;" glyph-name="Uacute" horiz-adv-x="1556" d="M190 580Q190 340 360 170T768 0Q1010 0 1180 170T1350 580V1384Q1350 1404 1335 1419T1299 1434T1264 1420T1249 1384V580Q1249 381 1109 242T768 100Q571 102 431 241T291 580V1384Q291 1404
276 1419T240 1434T205 1420T190 1384V580ZM657 1622Q630 1622 631 1640Q631 1650 639 1663L766 1853Q791 1890 823 1890Q852 1890 880 1875T909 1843Q909 1829 887 1806L723 1649Q694 1622 657 1622Z" />
<glyph unicode="&#xdb;" glyph-name="Ucircumflex" horiz-adv-x="1556" d="M190 580Q190 340 360 170T768 0Q1010 0 1180 170T1350 580V1384Q1350 1404 1335 1419T1299 1434T1264 1420T1249 1384V580Q1249 381 1109 242T768 100Q571 102 431 241T291 580V1384Q291
1404 276 1419T240 1434T205 1420T190 1384V580ZM770 1767L641 1649Q612 1622 575 1622Q548 1622 549 1642Q549 1654 559 1667L707 1847Q738 1884 764 1884H780Q807 1884 838 1847L985 1667Q995 1655 995 1642Q995 1622 967 1622Q928 1622 899 1649L770 1767Z"
/>
<glyph unicode="&#xdc;" glyph-name="Udieresis" horiz-adv-x="1556" d="M190 580Q190 340 360 170T768 0Q1010 0 1180 170T1350 580V1384Q1350 1404 1335 1419T1299 1434T1264 1420T1249 1384V580Q1249 381 1109 242T768 100Q571 102 431 241T291 580V1384Q291
1404 276 1419T240 1434T205 1420T190 1384V580ZM514 1677T514 1714T539 1776T602 1802T664 1777T690 1714T665 1652T602 1626T540 1651ZM852 1677T852 1714T877 1776T940 1802T1002 1777T1028 1714T1003 1652T940 1626T878 1651Z" />
<glyph unicode="&#xdf;" glyph-name="germandbls" horiz-adv-x="1269" d="M584 23T584 41T596 71T627 86Q811 96 921 170T1032 383V387Q1032 518 923 595T635 694Q584 700 584 743Q584 780 625 795Q940 906 940 1143V1147Q940 1264 855 1339T635 1415Q483 1415
387 1309T291 1024V41Q291 21 277 7T240 -8T204 6T190 41V1024Q190 1239 313 1374T641 1509Q823 1509 936 1407T1049 1151V1147Q1049 1008 956 908T727 758Q907 727 1024 636T1141 391V387Q1141 205 1000 105T627 -4Q611 -4 598 9Z" />
<glyph unicode="&#xe0;" glyph-name="agrave" horiz-adv-x="1175" d="M1010 1004T1030 1004T1065 990T1079 954V49Q1079 29 1065 15T1031 0T996 14T981 49V199Q915 107 816 54T604 0Q407 0 268 147T129 502T268 856T604 1004Q717 1004 816 951T981 807V954Q981
974 995 989ZM604 98Q760 98 870 216T981 502T871 788T604 907Q450 907 339 789T227 502T338 216T604 98ZM719 1167Q682 1167 653 1194L489 1352Q466 1375 467 1389Q467 1405 495 1420T553 1436Q586 1436 610 1399L737 1208Q745 1196 745 1186Q746 1167 719 1167Z"
/>
<glyph unicode="&#xe1;" glyph-name="aacute" horiz-adv-x="1175" d="M1010 1004T1030 1004T1065 990T1079 954V49Q1079 29 1065 15T1031 0T996 14T981 49V199Q915 107 816 54T604 0Q407 0 268 147T129 502T268 856T604 1004Q717 1004 816 951T981 807V954Q981
974 995 989ZM604 98Q760 98 870 216T981 502T871 788T604 907Q450 907 339 789T227 502T338 216T604 98ZM492 1167Q465 1167 465 1186Q465 1196 473 1208L600 1399Q625 1436 657 1436Q686 1436 714 1421T743 1389Q743 1375 721 1352L557 1194Q529 1167 492 1167Z"
/>
<glyph unicode="&#xe2;" glyph-name="acircumflex" horiz-adv-x="1175" d="M1010 1004T1030 1004T1065 990T1079 954V49Q1079 29 1065 15T1031 0T996 14T981 49V199Q915 107 816 54T604 0Q407 0 268 147T129 502T268 856T604 1004Q717 1004 816 951T981 807V954Q981
974 995 989ZM604 98Q760 98 870 216T981 502T871 788T604 907Q450 907 339 789T227 502T338 216T604 98ZM602 1313L473 1194Q444 1167 408 1167Q381 1167 381 1188Q381 1200 391 1212L539 1393Q570 1430 596 1430H612Q639 1430 670 1393L817 1212Q827 1200 827
1188Q827 1168 799 1167Q760 1167 731 1194L602 1313Z" />
<glyph unicode="&#xe3;" glyph-name="atilde" horiz-adv-x="1175" d="M1010 1004T1030 1004T1065 990T1079 954V49Q1079 29 1065 15T1031 0T996 14T981 49V199Q915 107 816 54T604 0Q407 0 268 147T129 502T268 856T604 1004Q717 1004 816 951T981 807V954Q981
974 995 989ZM604 98Q760 98 870 216T981 502T871 788T604 907Q450 907 339 789T227 502T338 216T604 98ZM381 1196Q367 1167 344 1167Q307 1167 307 1202Q307 1214 311 1227Q340 1313 378 1346T473 1380Q512 1380 606 1338T735 1296Q768 1296 788 1313T827 1374Q841
1403 864 1403Q901 1403 901 1368Q901 1356 897 1343Q868 1257 831 1224T735 1190Q696 1190 602 1232T473 1274Q440 1274 420 1257T381 1196Z" />
<glyph unicode="&#xe4;" glyph-name="adieresis" horiz-adv-x="1175" d="M1010 1004T1030 1004T1065 990T1079 954V49Q1079 29 1065 15T1031 0T996 14T981 49V199Q915 107 816 54T604 0Q407 0 268 147T129 502T268 856T604 1004Q717 1004 816 951T981 807V954Q981
974 995 989ZM604 98Q760 98 870 216T981 502T871 788T604 907Q450 907 339 789T227 502T338 216T604 98ZM350 1219T350 1255T375 1317T438 1343T500 1318T526 1256T501 1193T438 1167T376 1193ZM688 1219T688 1255T713 1317T776 1343T838 1318T864 1256T839 1193T776
1167T714 1193Z" />
<glyph unicode="&#xe5;" glyph-name="aring" horiz-adv-x="1175" d="M985 1004T1005 1004T1040 990T1055 954V49Q1055 29 1041 15T1006 0T971 14T956 49V199Q890 107 791 54T580 0Q383 0 244 147T104 502T243 856T580 1004Q693 1004 792 951T956 807V954Q956 974
970 989ZM580 98Q736 98 846 216T956 502T846 788T580 907Q426 907 315 789T203 502T314 216T580 98ZM580 1147Q508 1147 453 1201T397 1325V1327Q397 1401 452 1454T580 1507Q656 1507 712 1454T768 1327V1325Q768 1253 712 1200T580 1147ZM580 1231Q623 1231
651 1259T680 1325V1327Q680 1366 652 1396T580 1427Q543 1427 514 1397T485 1327V1325Q485 1288 514 1260T580 1231Z" />
<glyph unicode="&#xe6;" glyph-name="ae" horiz-adv-x="1953" d="M1458 1008Q1651 1008 1789 873T1944 541V539V532Q1944 512 1930 498T1894 483H1067Q1075 319 1187 209T1458 98Q1558 98 1644 147T1782 281Q1792 299 1813 303T1849 297Q1890 268 1866 229Q1798
123 1692 62T1458 0Q1335 0 1229 59T1055 219V49Q1055 29 1041 15T1006 0T971 14T956 49V199Q890 107 791 54T580 0Q383 0 244 147T104 502T243 856T580 1004Q693 1004 792 951T956 807V954Q956 974 970 989T1005 1004T1040 990T1055 954V788Q1123 888 1229 948T1458
1008ZM580 98Q736 98 846 216T956 502T846 788T580 907Q426 907 315 789T203 502T314 216T580 98ZM1073 584H1837Q1810 725 1704 817T1458 909Q1317 909 1210 817T1073 584Z" />
<glyph unicode="&#xe7;" glyph-name="ccedilla" horiz-adv-x="1169" d="M635 0Q420 0 270 146T119 504Q119 713 269 858T635 1004Q815 1004 954 893Q970 883 972 863T961 825Q930 790 893 817Q780 907 635 907Q461 907 339 789T217 504Q217 334 339 216T635 98Q778
98 893 186Q930 213 961 178Q994 139 950 106Q813 0 635 0ZM713 20L580 -250Q560 -291 526 -291Q501 -291 479 -275T457 -242Q457 -230 467 -211L625 20H713Z" />
<glyph unicode="&#xe8;" glyph-name="egrave" horiz-adv-x="1247" d="M606 0Q731 0 838 61T1012 227Q1037 268 995 297Q954 322 930 281Q879 197 793 148T606 98Q450 98 338 208T217 483H1040Q1060 483 1075 495T1090 528V535V537Q1074 736 937 870T606 1004Q403
1004 261 857T119 500Q119 293 261 147T606 0ZM606 905Q745 905 851 813T983 580H223Q252 723 358 814T606 905ZM717 1167Q680 1167 651 1194L487 1352Q464 1375 465 1389Q465 1405 493 1420T551 1436Q584 1436 608 1399L735 1208Q743 1196 743 1186Q744 1167 717
1167Z" />
<glyph unicode="&#xe9;" glyph-name="eacute" horiz-adv-x="1247" d="M606 0Q731 0 838 61T1012 227Q1037 268 995 297Q954 322 930 281Q879 197 793 148T606 98Q450 98 338 208T217 483H1040Q1060 483 1075 495T1090 528V535V537Q1074 736 937 870T606 1004Q403
1004 261 857T119 500Q119 293 261 147T606 0ZM606 905Q745 905 851 813T983 580H223Q252 723 358 814T606 905ZM492 1167Q465 1167 465 1186Q465 1196 473 1208L600 1399Q625 1436 657 1436Q686 1436 714 1421T743 1389Q743 1375 721 1352L557 1194Q529 1167 492
1167Z" />
<glyph unicode="&#xea;" glyph-name="ecircumflex" horiz-adv-x="1247" d="M606 0Q731 0 838 61T1012 227Q1037 268 995 297Q954 322 930 281Q879 197 793 148T606 98Q450 98 338 208T217 483H1040Q1060 483 1075 495T1090 528V535V537Q1074 736 937 870T606 1004Q403
1004 261 857T119 500Q119 293 261 147T606 0ZM606 905Q745 905 851 813T983 580H223Q252 723 358 814T606 905ZM604 1313L475 1194Q446 1167 410 1167Q383 1167 383 1188Q383 1200 393 1212L541 1393Q572 1430 598 1430H614Q641 1430 672 1393L819 1212Q829 1200
829 1188Q829 1168 801 1167Q762 1167 733 1194L604 1313Z" />
<glyph unicode="&#xeb;" glyph-name="edieresis" horiz-adv-x="1196" d="M612 0Q737 0 844 61T1018 227Q1043 268 1001 297Q960 322 936 281Q885 197 799 148T612 98Q456 98 344 208T223 483H1047Q1067 483 1081 495T1096 528V535V537Q1080 736 943 870T612 1004Q409
1004 267 857T125 500Q125 293 267 147T612 0ZM612 905Q751 905 858 813T989 580H229Q258 723 364 814T612 905ZM354 1219T354 1255T380 1317T442 1343T504 1318T530 1256T505 1193T443 1167T380 1193ZM692 1219T692 1255T717 1317T780 1343T842 1318T868 1256T843
1193T780 1167T718 1193Z" />
<glyph unicode="&#xec;" glyph-name="igrave" horiz-adv-x="575" d="M193 49Q193 29 207 15T241 0T277 14T293 49V954Q293 974 279 989T242 1004Q222 1004 208 990T193 954V49ZM354 1167Q317 1167 289 1194L125 1352Q102 1375 102 1389Q102 1405 131 1420T188
1436Q221 1436 246 1399L373 1208Q381 1196 381 1186Q381 1167 354 1167Z" />
<glyph unicode="&#xed;" glyph-name="iacute" horiz-adv-x="575" d="M193 49Q193 29 207 15T241 0T277 14T293 49V954Q293 974 279 989T242 1004Q222 1004 208 990T193 954V49ZM129 1167Q102 1167 102 1186Q102 1196 111 1208L238 1399Q263 1436 295 1436Q324
1436 352 1421T381 1389Q381 1375 358 1352L195 1194Q166 1167 129 1167Z" />
<glyph unicode="&#xee;" glyph-name="icircumflex" horiz-adv-x="575" d="M193 49Q193 29 207 15T241 0T277 14T293 49V954Q293 974 279 989T242 1004Q222 1004 208 990T193 954V49ZM240 1313L111 1194Q82 1167 45 1167Q18 1167 18 1188Q18 1200 29 1212L176 1393Q207
1430 233 1430H250Q277 1430 307 1393L455 1212Q465 1200 465 1188Q465 1168 436 1167Q397 1167 369 1194L240 1313Z" />
<glyph unicode="&#xef;" glyph-name="idieresis" horiz-adv-x="575" d="M193 49Q193 29 207 15T241 0T277 14T293 49V954Q293 974 279 989T242 1004Q222 1004 208 990T193 954V49ZM-12 1219T-12 1255T13 1317T76 1343T138 1318T164 1256T139 1193T76 1167T14 1193ZM326
1219T326 1255T351 1317T414 1343T476 1318T502 1256T477 1193T414 1167T352 1193Z" />
<glyph unicode="&#xf1;" glyph-name="ntilde" horiz-adv-x="1255" d="M909 49Q909 29 923 15T958 0T993 14T1008 49V594Q1008 762 888 881T600 1001Q410 1001 289 856V952Q289 972 276 986T242 1001T207 987T193 952V610V594V49V37Q195 35 195 33Q195 29 197 27Q207
7 229 0H242Q267 0 279 18Q285 24 289 41V49V594Q293 723 383 813T600 903Q729 903 819 812T909 594V49ZM379 1176Q365 1147 342 1147Q305 1147 305 1182Q305 1194 309 1206Q338 1292 376 1326T471 1360Q512 1360 606 1318T733 1276T786 1293T825 1354Q839 1383
862 1382Q899 1382 899 1348Q899 1336 895 1323Q866 1237 829 1203T733 1169Q692 1169 598 1211T471 1253T418 1236T379 1176Z" />
<glyph unicode="&#xf2;" glyph-name="ograve" horiz-adv-x="1310" d="M119 707T119 502T258 149T594 0T930 148T1069 502T930 855T594 1004T258 856ZM217 502Q217 670 328 788T594 907T859 789T971 502Q971 336 860 217T594 98T329 217T217 502ZM707 1167Q670
1167 641 1194L477 1352Q454 1375 455 1389Q455 1405 483 1420T541 1436Q574 1436 598 1399L725 1208Q733 1196 733 1186Q734 1167 707 1167Z" />
<glyph unicode="&#xf3;" glyph-name="oacute" horiz-adv-x="1310" d="M119 707T119 502T258 149T594 0T930 148T1069 502T930 855T594 1004T258 856ZM217 502Q217 670 328 788T594 907T859 789T971 502Q971 336 860 217T594 98T329 217T217 502ZM485 1167Q458
1167 459 1186Q459 1196 467 1208L594 1399Q619 1436 651 1436Q680 1436 708 1421T737 1389Q737 1375 715 1352L551 1194Q522 1167 485 1167Z" />
<glyph unicode="&#xf4;" glyph-name="ocircumflex" horiz-adv-x="1310" d="M119 707T119 502T258 149T594 0T930 148T1069 502T930 855T594 1004T258 856ZM217 502Q217 670 328 788T594 907T859 789T971 502Q971 336 860 217T594 98T329 217T217 502ZM592 1313L463
1194Q434 1167 397 1167Q370 1167 371 1188Q371 1200 381 1212L528 1393Q559 1430 586 1430H602Q629 1430 659 1393L807 1212Q817 1200 817 1188Q817 1168 788 1167Q749 1167 721 1194L592 1313Z" />
<glyph unicode="&#xf5;" glyph-name="otilde" horiz-adv-x="1310" d="M119 707T119 502T258 149T594 0T930 148T1069 502T930 855T594 1004T258 856ZM217 502Q217 670 328 788T594 907T859 789T971 502Q971 336 860 217T594 98T329 217T217 502ZM371 1196Q357
1167 334 1167Q297 1167 297 1202Q297 1214 301 1227Q330 1313 368 1346T463 1380Q504 1380 598 1338T725 1296T778 1313T817 1374Q831 1403 854 1403Q891 1403 891 1368Q891 1356 887 1343Q858 1257 820 1224T725 1190Q684 1190 590 1232T463 1274T410 1257T371
1196Z" />
<glyph unicode="&#xf6;" glyph-name="odieresis" horiz-adv-x="1310" d="M119 707T119 502T258 149T594 0T930 148T1069 502T930 855T594 1004T258 856ZM217 502Q217 670 328 788T594 907T859 789T971 502Q971 336 860 217T594 98T329 217T217 502ZM336 1219T336
1255T361 1317T424 1343T486 1318T512 1256T487 1193T424 1167T362 1193ZM674 1219T674 1255T699 1317T762 1343T824 1318T850 1256T825 1193T762 1167T700 1193Z" />
<glyph unicode="&#xf7;" glyph-name="divide" horiz-adv-x="1269" d="M180 672H1090Q1110 672 1124 686T1139 720T1125 755T1090 770H180Q160 770 146 756T131 721T145 686T180 672ZM602 1214T635 1214T692 1191T717 1133V1098Q717 1065 693 1041T635 1016T578
1040T553 1098V1133Q553 1168 577 1191ZM602 426T635 426T692 402T717 344V309Q717 274 693 251T635 227T578 250T553 309V344Q553 377 577 401Z" />
<glyph unicode="&#xf8;" glyph-name="oslash" horiz-adv-x="1310" d="M653 -25Q456 -25 311 98L213 -2Q197 -18 176 -18Q160 -18 148 -7T135 20Q135 38 147 51L250 158Q119 316 119 518V522Q119 745 273 907T657 1069Q854 1069 999 944L1098 1051Q1114 1067 1135
1067Q1151 1067 1163 1056T1176 1028Q1176 1010 1163 997L1059 887Q1192 733 1192 526V522Q1192 299 1037 137T653 -25ZM657 70Q841 70 962 201T1083 518V522Q1083 686 985 811L377 176Q495 70 657 70ZM227 522Q227 356 324 233L934 866Q813 975 653 975Q469 975
348 844T227 526V522Z" />
<glyph unicode="&#xf9;" glyph-name="ugrave" horiz-adv-x="1255" d="M170 410Q170 240 289 120T575 0Q747 0 867 120T987 410V956Q987 976 973 991T936 1006Q918 1006 903 992T887 956V410Q887 281 796 191T575 98Q448 100 358 190T268 410V956Q268 976 254 991T220
1006T185 992T170 956V410ZM690 1167Q653 1167 625 1194L461 1352Q438 1375 438 1389Q438 1405 467 1420T524 1436Q557 1436 582 1399L709 1208Q717 1196 717 1186Q717 1167 690 1167Z" />
<glyph unicode="&#xfa;" glyph-name="uacute" horiz-adv-x="1255" d="M170 410Q170 240 289 120T575 0Q747 0 867 120T987 410V956Q987 976 973 991T936 1006Q918 1006 903 992T887 956V410Q887 281 796 191T575 98Q448 100 358 190T268 410V956Q268 976 254 991T220
1006T185 992T170 956V410ZM465 1167Q438 1167 438 1186Q438 1196 446 1208L573 1399Q598 1436 631 1436Q660 1436 688 1421T717 1389Q717 1375 694 1352L530 1194Q502 1167 465 1167Z" />
<glyph unicode="&#xfb;" glyph-name="ucircumflex" horiz-adv-x="1255" d="M170 410Q170 240 289 120T575 0Q747 0 867 120T987 410V956Q987 976 973 991T936 1006Q918 1006 903 992T887 956V410Q887 281 796 191T575 98Q448 100 358 190T268 410V956Q268 976
254 991T220 1006T185 992T170 956V410ZM578 1313L449 1194Q420 1167 383 1167Q356 1167 356 1188Q356 1200 367 1212L514 1393Q545 1430 571 1430H588Q615 1430 645 1393L793 1212Q803 1200 803 1188Q803 1168 774 1167Q735 1167 707 1194L578 1313Z" />
<glyph unicode="&#xfc;" glyph-name="udieresis" horiz-adv-x="1255" d="M170 410Q170 240 289 120T575 0Q747 0 867 120T987 410V956Q987 976 973 991T936 1006Q918 1006 903 992T887 956V410Q887 281 796 191T575 98Q448 100 358 190T268 410V956Q268 976 254
991T220 1006T185 992T170 956V410ZM324 1219T324 1255T349 1317T412 1343T474 1318T500 1256T475 1193T412 1167T350 1193ZM662 1219T662 1255T687 1317T749 1343T812 1318T838 1256T812 1193T750 1167T688 1193Z" />
<glyph unicode="&#xff;" glyph-name="ydieresis" horiz-adv-x="1204" d="M106 412Q106 244 225 124T512 2Q696 2 823 145V80Q821 -76 711 -184T444 -293Q358 -293 281 -254Q236 -242 217 -279Q197 -318 238 -344Q342 -391 444 -391Q643 -391 782 -254T922 80V393V412V956Q922
966 915 977Q913 983 903 993Q887 1001 879 1004H872H866Q864 1004 863 1002L860 1001H856Q844 997 838 989Q836 989 836 988T834 987L833 985Q832 983 831 981Q823 973 823 956V412Q821 283 731 193T512 102Q385 102 295 192T205 412V956Q205 976 191 990T154
1004Q136 1004 121 991T106 956V412ZM256 1219T256 1255T281 1317T344 1343T406 1318T432 1256T407 1193T344 1167T282 1193ZM594 1219T594 1255T619 1317T682 1343T744 1318T770 1256T745 1193T682 1167T620 1193Z" />
<glyph unicode="&#x152;" glyph-name="OE" horiz-adv-x="2955" d="M1448 49V387Q1360 211 1198 106T842 0Q553 0 353 212T150 727Q152 1030 352 1242T842 1454Q1037 1454 1198 1349T1448 1067V1384Q1448 1404 1462 1419T1497 1434H2234Q2254 1434 2269 1420T2284
1384Q2284 1361 2270 1347T2234 1333H1548V766H2148Q2168 766 2183 751T2198 715T2184 680T2148 666H1548V100H2234Q2254 100 2269 86T2284 49Q2284 29 2270 15T2234 0H1493Q1475 2 1462 15T1448 49ZM250 727Q250 465 423 283T842 100Q1080 100 1251 283T1425 727Q1423
991 1252 1171T842 1352Q596 1352 423 1172T250 727Z" />
<glyph unicode="&#x153;" glyph-name="oe" horiz-adv-x="2160" d="M1475 0Q1328 0 1206 82T1026 299Q971 164 854 82T592 0Q395 0 257 147T119 502Q119 707 257 854T592 1001Q735 1001 852 920T1026 705Q1083 840 1205 924T1475 1008Q1668 1008 1806 873T1960
541V532Q1960 512 1946 498T1911 483H1083Q1091 319 1204 209T1475 98Q1575 98 1661 147T1798 281Q1808 299 1829 303T1866 297Q1907 268 1882 229Q1814 123 1708 62T1475 0ZM217 670T217 502T327 216T592 98Q748 98 858 216T969 502T859 787T592 905Q438 905 328
788ZM1475 909Q1334 909 1226 817T1090 584H1853Q1826 725 1720 817T1475 909Z" />
<glyph unicode="&#x178;" glyph-name="Ydieresis" horiz-adv-x="1466" d="M606 49Q606 29 620 15T655 0T690 14T705 49V692L1184 1346Q1196 1362 1193 1383T1174 1415Q1158 1429 1136 1426T1104 1407L653 791L205 1407Q195 1423 174 1426T135 1415Q98 1388 125
1346L606 688V49ZM399 1677T399 1714T425 1776T487 1802T549 1777T575 1714T550 1652T488 1626T425 1651ZM737 1677T737 1714T762 1776T825 1802T887 1777T913 1714T888 1652T825 1626T763 1651Z" />
<glyph unicode="&#x192;" glyph-name="florin" horiz-adv-x="1036" d="M193 -10Q115 -10 115 35T178 80Q315 80 346 248L446 786H262Q244 786 230 799T215 831Q215 851 229 865T262 879H463L516 1157Q545 1309 615 1376T809 1444Q881 1444 930 1432Q971 1422 971
1384Q971 1366 958 1354T926 1341Q924 1341 887 1347T819 1354Q735 1354 690 1307T625 1151L573 879H852Q870 879 884 865T899 832T885 800T852 786H557L455 242Q406 -10 193 -10Z" />
<glyph unicode="&#x2c6;" glyph-name="circumflex" horiz-adv-x="1024" d="M510 1358L381 1239Q352 1212 315 1212Q288 1212 289 1233Q289 1245 299 1257L446 1438Q477 1475 504 1475H520Q547 1475 578 1438L725 1257Q735 1245 735 1233Q735 1213 707 1212Q668
1212 639 1239L510 1358Z" />
<glyph unicode="&#x2dc;" glyph-name="tilde" horiz-adv-x="1024" d="M289 1225Q275 1196 252 1196Q215 1196 215 1231Q215 1243 219 1255Q248 1341 286 1375T381 1409Q422 1409 516 1367T643 1325T696 1342T735 1403Q749 1432 772 1432Q809 1432 809 1397Q809
1385 805 1372Q776 1286 738 1253T643 1219Q602 1219 508 1261T381 1303T328 1286T289 1225Z" />
<glyph unicode="&#x2013;" glyph-name="endash" horiz-adv-x="1081" d="M188 555Q168 555 152 570T135 608T151 646T188 662H893Q913 662 929 647T946 609T930 571T893 555H188Z" />
<glyph unicode="&#x2014;" glyph-name="emdash" horiz-adv-x="1839" d="M188 555Q168 555 152 570T135 608T151 646T188 662H1651Q1671 662 1687 647T1704 609T1688 571T1651 555H188Z" />
<glyph unicode="&#x2018;" glyph-name="quoteleft" horiz-adv-x="471" d="M350 1409Q350 1393 334 1382Q230 1325 238 1225Q293 1211 293 1153V1110Q293 1081 274 1062T226 1042T178 1061T158 1110V1161Q158 1319 213 1374Q279 1440 319 1440Q350 1440 350 1409Z" />
<glyph unicode="&#x2019;" glyph-name="quoteright" horiz-adv-x="471" d="M121 1075Q121 1091 137 1102Q241 1159 233 1260Q178 1274 178 1331V1374Q178 1401 197 1421T245 1442T293 1422T313 1374V1323Q313 1165 258 1110Q192 1044 152 1044Q121 1044 121 1075Z" />
<glyph unicode="&#x201a;" glyph-name="quotesinglbase" horiz-adv-x="471" />
<glyph unicode="&#x201c;" glyph-name="quotedblleft" horiz-adv-x="839" d="M719 1409Q719 1393 702 1382Q598 1325 606 1225Q661 1211 662 1153V1110Q662 1081 643 1062T594 1042T546 1061T526 1110V1161Q526 1319 582 1374Q648 1440 688 1440Q719 1440 719
1409ZM350 1409Q350 1393 334 1382Q230 1325 238 1225Q293 1211 293 1153V1110Q293 1081 274 1062T226 1042T178 1061T158 1110V1161Q158 1319 213 1374Q279 1440 319 1440Q350 1440 350 1409Z" />
<glyph unicode="&#x201d;" glyph-name="quotedblright" horiz-adv-x="839" d="M121 1075Q121 1091 137 1102Q241 1159 233 1260Q178 1274 178 1331V1374Q178 1401 197 1421T245 1442T293 1422T313 1374V1323Q313 1165 258 1110Q192 1044 152 1044Q121 1044 121
1075ZM489 1075Q489 1091 506 1102Q610 1159 602 1260Q547 1274 547 1331V1374Q547 1401 566 1421T614 1442T662 1422T682 1374V1323Q682 1165 627 1110Q561 1044 520 1044Q489 1044 489 1075Z" />
<glyph unicode="&#x201e;" glyph-name="quotedblbase" horiz-adv-x="839" d="M111 -184Q111 -168 127 -158Q231 -101 223 0Q168 14 168 72V115Q168 144 187 163T235 182T283 163T303 115V63Q303 -95 248 -150Q182 -216 141 -215Q111 -215 111 -184ZM479 -184Q479
-168 496 -158Q600 -101 592 0Q537 14 537 72V115Q537 144 557 163T604 182T651 163T672 115V63Q672 -95 616 -150Q550 -216 510 -215Q479 -215 479 -184Z" />
<glyph unicode="&#x2020;" glyph-name="dagger" horiz-adv-x="839" d="M375 526L385 1073L168 1061Q150 1059 136 1072T121 1103T135 1136T168 1149L383 1137L371 1389Q369 1412 383 1427T419 1442T456 1427T469 1389L457 1137L672 1149Q690 1151 704 1137T719
1104T705 1072T672 1061L455 1073L465 526Q465 506 452 493T420 479T388 492T375 526Z" />
<glyph unicode="&#x2021;" glyph-name="daggerdbl" horiz-adv-x="880" d="M391 45L403 297L188 285Q170 283 156 297T141 329T155 361T188 373L406 360L395 717L406 1073L188 1061Q170 1059 156 1072T141 1103T155 1136T188 1149L403 1137L391 1389Q389 1412 403
1427T440 1442T477 1427T489 1389L477 1137L692 1149Q710 1151 724 1137T739 1104T725 1072T692 1061L475 1073L485 717L475 360L692 373Q710 375 724 362T739 330T725 297T692 285L477 297L489 45Q491 22 477 7T441 -8T404 7T391 45Z" />
<glyph unicode="&#x2022;" glyph-name="bullet" horiz-adv-x="962" d="M586 467T482 467T302 540T227 719V723Q227 825 304 900T481 975T658 900T735 723V719Q735 615 661 541Z" />
<glyph unicode="&#x2026;" glyph-name="ellipsis" horiz-adv-x="1392" d="M168 59T168 102T197 175T270 205T343 175T373 102T343 30T270 0T198 29ZM633 59T633 102T662 175T735 205T808 175T838 102T808 30T735 0T663 29ZM1098 59T1098 102T1127 175T1200 205T1273
175T1303 102T1273 30T1200 0T1128 29Z" />
<glyph unicode="&#x2039;" glyph-name="guilsinglleft" horiz-adv-x="636" d="M453 88Q430 88 414 111L133 477Q113 504 113 522T133 567L414 934Q430 957 453 956Q471 956 484 944T498 913Q498 893 485 879L227 524L485 166Q497 152 498 131Q498 113 485 101T453 88Z" />
<glyph unicode="&#x203a;" glyph-name="guilsinglright" horiz-adv-x="636" d="M184 956Q207 956 223 934L504 567Q524 540 524 522T504 477L223 111Q207 88 184 88Q166 88 153 100T139 131Q139 151 152 166L410 520L152 879Q138 899 139 913Q143 956 184 956Z" />
<glyph unicode="&#x2122;" glyph-name="trademark" horiz-adv-x="1413" d="M252 840V1391H66Q46 1391 45 1413Q45 1433 66 1434H479Q499 1434 500 1413Q500 1390 479 1391H293V840Q293 820 273 820T252 840ZM1085 840V1346L889 1073Q885 1063 870 1063H868Q858
1063 850 1073L653 1346V840Q653 820 633 819Q610 819 610 840V1409Q610 1419 621 1425V1427Q641 1439 651 1421L870 1118L1087 1421Q1097 1439 1118 1427L1124 1421Q1128 1413 1128 1409V840Q1128 820 1106 819Q1085 820 1085 840Z" />
</font>
</defs>
</svg>
